<?xml version="1.0" standalone="no"?>
<!DOCTYPE svg PUBLIC "-//W3C//DTD SVG 1.1//EN" "http://www.w3.org/Graphics/SVG/1.1/DTD/svg11.dtd" >
<svg>
<metadata>
Created by FontForge 20120731 at Fri Mar 14 11:55:40 2014
 By World Wide Web Server
(c) 2003 Gary Godby
</metadata>
<defs>
<font id="LHFTylerRegular" horiz-adv-x="492" >
  <font-face 
    font-family="LHF Tyler Regular"
    font-weight="400"
    font-stretch="normal"
    units-per-em="1055"
    panose-1="0 0 4 0 0 0 0 0 0 0"
    ascent="844"
    descent="-211"
    x-height="383"
    cap-height="591"
    bbox="-223 -267.101 941 809"
    underline-thickness="20"
    underline-position="-123"
    unicode-range="U+0020-2122"
  />
<missing-glyph horiz-adv-x="527" 
 />
    <glyph glyph-name=".notdef" horiz-adv-x="527" 
 />
    <glyph glyph-name=".null" horiz-adv-x="0" 
 />
    <glyph glyph-name="nonmarkingreturn" horiz-adv-x="527" 
 />
    <glyph glyph-name="space" unicode=" " horiz-adv-x="254" 
 />
    <glyph glyph-name="space" unicode="&#xa0;" horiz-adv-x="254" 
 />
    <glyph glyph-name="exclam" unicode="!" horiz-adv-x="160" 
d="M42 576q0 11 -6.5 12t-6.5 5q0 6 12 5q14 -3 29 -5q16 -3 32 1q14 3 14 -4q0 -4 -6.5 -4.5t-6.5 -8.5q0 -75 -11 -217q-10 -145 -11 -217q0 -18 -12 -18q-11 0 -11 18q0 71 -8 216q-9 142 -8 217zM68 -4q13 0 22 12.5t9 30.5q0 17 -9 30t-22 13q-12 0 -20.5 -13t-8.5 -30
q0 -18 8.5 -30.5t20.5 -12.5z" />
    <glyph glyph-name="quotedbl" unicode="&#x22;" horiz-adv-x="222" 
d="M56 583q-15 -109 -20 -174q-1 -13 -7 -13t-8 13q-5 48 -21 176q-1 5 5 6q3 0 10 -1q15 -2 31 0q5 1 8 0t2 -7zM171 583q-13 -89 -20 -174q-1 -13 -7 -13t-8 13q-5 48 -21 176q-1 5 5 6q3 0 10 -1q15 -2 31 0q5 1 7 0q4 -1 3 -7z" />
    <glyph glyph-name="numbersign" unicode="#" horiz-adv-x="448" 
d="M431 308q5 1 5 -2q0 -12 -9 -16q-21 -17 -56 -20q-8 -1 -60 -1l-29 -86h41q42 0 69 9q4 1 4 -2q0 -12 -9 -16q-20 -17 -55 -21q-9 -1 -60 -1l-30 -78q-30 -75 -63 -75q-8 0 -4 6q19 28 39 84q13 34 21 63h-86q-9 -26 -28 -78q-31 -75 -63 -75q-8 0 -4 6q22 33 61 147
q-68 5 -111 -8q-4 -1 -4 2q0 11 9 16q21 17 55 20q9 1 60 1l31 86q-66 4 -109 -9q-4 -1 -4 2q0 12 9 16q19 17 54 21q9 1 61 1q9 26 28 78q30 75 63 75q8 0 4 -6q-29 -41 -60 -147h86q14 43 29 78q31 75 62 75q8 0 4 -6q-25 -36 -61 -147q69 -5 110 8zM276 269h-85l-31 -86
h85z" />
    <glyph glyph-name="dollar" unicode="$" horiz-adv-x="481" 
d="M181 568q-40 -8 -65.5 -34t-25.5 -58q0 -37 34 -66q20 -18 59 -44q0 -80 3 -241q-39 7 -76.5 35t-49.5 56q-1 5 -5 22q-2 12 -16 4q-9 -7 -18 -11q-13 -4 -6 -20q39 -88 171 -102q0 -12 1 -32v-29q0 -10 4 -10t4 10v28q1 21 1 33h7q12 -1 28 -1v-60q1 -10 4 -10q4 0 4 9
t1 29v33q71 4 118 51q34 34 34 71q0 47 -54 96q-24 22 -95 70l3 159q60 -11 83 -55q5 -8 8 -8t8.5 8.5t9.5 10.5q8 6 0 13q-39 40 -109 46v61q0 12 -11 12t-11 -12q1 -36 1 -60q-16 0 -24 -1q0 25 1 61q0 12 -11 12t-11 -12q1 -38 1 -64zM227 408q-9 6 -28 17l2 133
q8 1 24 1zM243 327q1 -1 3 -2q95 -61 95 -115q0 -36 -34 -59q-28 -19 -67 -26q1 29 1 75zM231 124q-24 -1 -33 -1q-1 1 -2 1q0 31 1 76l1 156q10 -7 30 -20l1 -136q1 -47 2 -76zM182 437q-54 33 -54 67q0 42 53 51q1 -86 1 -118z" />
    <glyph glyph-name="percent" unicode="%" horiz-adv-x="717" 
d="M139 593q-64 0 -102 -62q-31 -52 -31 -121q0 -67 30 -117q35 -61 97 -61q64 0 101 63q31 53 31 121q0 74 -34 125q46 -27 135 -27q91 0 155 35q-29 -27 -54 -60q-89 -123 -269 -366l-62 -84q-42 -48 -86 -52q-8 -1 -8 -4q0 -7 18 -7q21 0 37 7q48 20 95 72q18 20 76 96
q83 116 252 347q19 27 37 53q24 26 56 25h7q5 2 5 5q0 8 -24 8q-32 0 -66 -16q-76 -38 -157 -38q-52 0 -104 14q-9 2 -57 21q-37 14 -57 14q-10 0 -24 -4q-17 -5 -17 -13q0 -3 3 -3l2 1q9 10 23 10q69 0 69 -149q0 -62 -15 -111q-21 -72 -68 -72q-44 0 -64 66
q-13 45 -13 104v4q1 129 57 159q9 5 26 7q7 1 7 5q0 5 -7 5zM555 350q7 0 7 -5q0 -3 -7.5 -4t-24.5 -7q-58 -29 -59 -160v-4q0 -57 14 -103q20 -67 64 -67q46 0 68 71q15 49 15 109q0 152 -69 152q-11 0 -18 -5.5l-7 -5.5q-3 0 -3 4q0 7 17 13q13 4 23 4q52 0 81 -60
q24 -49 24 -107q0 -69 -31 -122q-36 -63 -101 -63q-61 0 -97 60q-29 50 -29 117q0 69 31 121q37 62 102 62z" />
    <glyph glyph-name="ampersand" unicode="&#x26;" horiz-adv-x="605" 
d="M459 424q-24 -27 -56 -34q-16 -4 -72 -6q-31 -2 -56 -16q-35 -20 -29 -56l3 -1q5 -3 -1 -8q-5 -4 -9 1q-8 11 -8 25q0 25 19 45q29 32 76 41q6 1 87 8q22 2 39.5 18t17.5 34q0 13 -11 23q-7 0 -7 7q0 8 6 8q3 0 6 -2q15 -13 15 -35q0 -30 -20 -52zM51 488
q-41 -38 -41 -85q0 -13 4 -25q8 -28 33 -47q22 -17 48 -20q6 -1 0 -4q-93 -53 -93 -146q0 -55 38 -97q41 -46 113 -59q35 -6 68 -6q86 0 150 46q89 64 81 159q-7 70 -66 106q-30 19 -67 19q-21 0 -40 -7q-37 -14 -37 -53q0 -20 17 -30q8 -5 18 -3t13 11q7 17 -7 21
q-18 5 -18 -11q0 -3 2 -7q-1 -1 -2 -1q-11 0 -11 23q0 35 40 41q24 4 48 -8q61 -30 68 -106q8 -78 -46.5 -132t-133.5 -54q-35 0 -69 13q-45 16 -76.5 63.5t-31.5 100.5q0 46 27 82q33 41 71 35q26 -4 21 -24q0 -4 -7.5 -5t-7.5 -5q1 -11 12 -11q12 0 17 15q8 24 -18 38
q-2 1 0 2q38 18 40 47q1 12 -7.5 22.5t-20.5 10.5q-15 0 -17 -14q-4 -20 15 -20q12 0 12 12q0 5 -4 7q13 0 11 -17q-2 -19 -21.5 -29.5t-40.5 -10.5q-64 0 -82 66q-4 12 -4 24q0 29 16 54.5t40 35.5q14 6 27 6q22 0 33 -14q5 -7 3 -21q-1 -5 0 -7q2 -2 7 -1q11 18 18 21t6 8
q-1 4 -7.5 6.5t-20.5 8.5q-20 7 -40 7q-46 0 -80 -31z" />
    <glyph glyph-name="quotesingle" unicode="'" horiz-adv-x="135" 
d="M13 454q-7 0 -13 3q-3 0 -3 4q1 3 5 3q26 -3 42 18q15 18 15 42q0 29 -21 26q-14 -1 -15 -17q-1 -7 -8 0q-9 11 -9 27q0 18 11.5 26.5t23.5 8.5q20 0 31.5 -16.5t11.5 -36.5q0 -34 -20.5 -61t-50.5 -27z" />
    <glyph glyph-name="parenleft" unicode="(" horiz-adv-x="365" 
d="M94 301q0 -172 85 -277q22 -27 53.5 -46.5t31.5 -21.5q0 -7 -9 -7q-29 0 -89 46q-161 122 -161 306q0 100 55 190t146 142q33 19 49 19q9 0 9 -6q0 -3 -25 -18q-75 -41 -113 -143q-32 -84 -32 -184z" />
    <glyph glyph-name="parenright" unicode=")" horiz-adv-x="365" 
d="M221 301q0 -172 -86 -277q-22 -27 -53.5 -46.5t-31.5 -21.5q0 -7 10 -7q28 0 88 46q161 122 161 306q0 100 -54.5 190t-146.5 142q-33 19 -48 19q-10 0 -10 -6q0 -3 26 -18q74 -41 113 -143q32 -84 32 -184z" />
    <glyph glyph-name="asterisk" unicode="*" horiz-adv-x="261" 
d="M228 485q-8 -13 -23 -40q-6 -14 -9 0q0 7 -4 16q-24 17 -70 50l9 -86q5 -4 14 -13q6 -5 -4 -7q-4 0 -12.5 1t-13.5 1q1 0 -8.5 -1t-15.5 -1q-8 0 -8 3q0 2 8.5 7.5t8.5 9.5q3 29 8 86l-68 -50q-4 -3 -5 -12t-4 -11q-1 -2 -7 11q-8 17 -21 36q-4 6 -3 8q2 2 10 -2t15 -3
l76 33l-76 36l-19 -6q-6 -2 -6 1q-1 3 3 8q7 10 23 39q8 16 9 -3q0 -10 5 -13q7 -6 69 -50l-9 85q-5 4 -14 13q-4 4 -2 6q1 2 4 1q1 0 11 -1q24 -2 44 1q3 0 5 -2q1 -2 -3 -5q-7 -4 -14 -13l-9 -85l69 50q2 2 3.5 12.5t3.5 10.5q3 -1 6 -7q6 -14 23 -39q4 -7 2 -8
q-1 -1 -9 1q-15 4 -16 4l-78 -36l80 -33q4 -2 16 3q5 2 7 2q1 -1 2 -1q0 -2 -3 -7z" />
    <glyph glyph-name="plus" unicode="+" horiz-adv-x="329" 
d="M268 280h-111v-110q0 -10 -8 -10h-22q-8 0 -8 9v111h-109q-10 0 -10 8v21q0 8 10 8h109v111q0 10 8 10h22q8 0 8 -11v-110h111q10 0 10 -8v-21q0 -8 -10 -8z" />
    <glyph glyph-name="comma" unicode="," horiz-adv-x="135" 
d="M13 -56q-7 0 -13 3q-3 0 -3 4q1 3 5 3q26 -3 42 18q15 18 15 42q0 29 -21 27q-14 -2 -15 -18q-1 -7 -8 0q-9 11 -9 27q0 18 11.5 26.5t23.5 8.5q20 0 31.5 -16.5t11.5 -36.5q0 -33 -20.5 -60.5t-50.5 -27.5z" />
    <glyph glyph-name="hyphen" unicode="-" horiz-adv-x="285" 
d="M27 353h181q25 0 25 -26q-8 -27 -25 -27h-181q-27 0 -27 27q9 26 27 26z" />
    <glyph glyph-name="period" unicode="." horiz-adv-x="111" 
d="M29 0q13 0 22 12.5t9 29.5q0 18 -9 31t-22 13q-29 0 -29 -44q0 -42 29 -42z" />
    <glyph glyph-name="slash" unicode="/" horiz-adv-x="589" 
d="M630 472q1 -9 4 -9q10 0 10 26q0 19 -13 33q-30 34 -78 34q-56 1 -95 -30q-35 -29 -67 -92q-8 -16 -61 -166q-42 -120 -85 -171q-73 -88 -170 -88q-52 0 -88 30q4 15 -9 15q-9 0 -9 -9q0 -21 37 -35q26 -11 53 -13q13 -2 25 -2q97 0 183 73q73 62 109 147q28 74 55 148
q43 113 72.5 143t66.5 30q58 0 60 -64z" />
    <glyph glyph-name="zero" unicode="0" horiz-adv-x="462" 
d="M213 606q11 0 11 -8t-12 -9.5t-39 -10.5q-50 -28 -73 -122q-17 -67 -17 -147v-5q0 -95 20 -171q32 -118 102 -118q71 0 105 125q24 84 24 181q0 252 -107 252q-17 0 -28 -9.5t-12 -9.5q-7 0 -5 6q10 29 57 29q39 0 64 -15q55 -33 84 -122q23 -70 23 -143q0 -111 -46 -200
q-57 -113 -160 -113q-36 0 -70 18q-67 34 -101 123q-28 73 -28 159q0 89 29 165q37 93 106 127q36 18 73 18z" />
    <glyph glyph-name="one" unicode="1" horiz-adv-x="251" 
d="M117 499q0 5 -2 6t-4 -4q-33 -64 -103 -84q-7 -3 -9 1q-3 3 1 10q10 14 7 24t16 12q38 10 66 39t28 65q0 27 17 24q31 -5 44 -1.5t13 -4.5q0 -5 -6 -6t-6 -20v-527q0 -21 6 -21.5t6 -5.5q-1 -5 -8 -4q-28 3 -48 -9.5t-24 -12.5q-5 0 -5 2l5.5 13.5t5.5 27.5v476z" />
    <glyph glyph-name="two" unicode="2" horiz-adv-x="469" 
d="M59 63q30 31 111 23q70 -10 140 -21q76 -8 100 24q4 7 13 14q12 9 12 0q0 -4 -3 -13q-8 -22 -24 -47q-21 -32 -37 -38q-27 -10 -57 -10q-33 0 -96 15.5t-92 15.5q-47 0 -83 -28q-6 -5 -11 -5q-15 0 -10 39q6 52 112 148q71 57 141.5 115.5t70.5 144.5q0 55 -31.5 93.5
t-84.5 38.5q-25 0 -52 -9q-113 -39 -113 -149q0 -25 7 -47q17 -49 61 -49q20 0 41 11q9 5 10 1q1 -3 -2 -13q-24 -45 -83 -45q-39 0 -62 23q-28 27 -28 72q0 61 46 123.5t117 86.5q35 12 72 12q74 0 125.5 -45t51.5 -118q-1 -79 -77 -144q-21 -17 -156 -102
q-98 -61 -129 -117z" />
    <glyph glyph-name="three" unicode="3" horiz-adv-x="494" 
d="M103 580q-19 9 -26 9q-6 0 -6 -7q0 -5 2 -13q21 -63 103 -63q35 0 95 11.5t71 11.5q7 0 10 -1l-144 -123q-30 -4 -43 -17q-8 -4 -7 -10q0 -6 6 -5q24 9 52 9q68 0 109 -58q37 -51 38 -127q2 -80 -35 -127q-39 -50 -113 -52q-72 -2 -118 37q-41 34 -46 84q-4 40 19 65
t56 25q26 0 48 -15q7 10 7 22q0 21 -17.5 37t-39.5 16q-60 0 -94 -41q-30 -36 -30 -89q0 -81 73 -124q61 -37 147 -36q93 2 156 57q69 59 67 155q-2 84 -67 140q-59 51 -141 55l173 147q10 8 -1 15q-30 22 -104 13q-28 -4 -57 -8q-43 -6 -73 -6q-44 0 -70 13z" />
    <glyph glyph-name="four" unicode="4" horiz-adv-x="504" 
d="M270 568q0 27 16 24q32 -5 45 -1.5t13 -4.5q0 -5 -6.5 -6t-6.5 -20v-359q27 2 66 27q44 28 44 51q0 6 -3 10q-7 3 -7 11q0 13 11 13q16 0 16 -25q0 -33 -49 -77q-44 -39 -78 -48v-130q0 -21 6.5 -21.5t5.5 -5.5q0 -5 -7 -4q-28 3 -48 -9.5t-24 -12.5q-5 0 -5 2l5.5 13.5
t5.5 27.5v127q-41 -4 -107 21q-71 27 -100 27q-25 0 -45 -12q-23 -15 -20 -39q5 -3 5 -7q0 -9 -11 -9q-10 0 -10 23q0 28 25 56l48 44q123 121 194 275q5 10 10 9q4 -1 4 -11q0 -12 -6 -25q-74 -163 -166 -253q11 2 22 2q35 0 82 -19q60 -22 75 -25v361z" />
    <glyph glyph-name="five" unicode="5" horiz-adv-x="458" 
d="M317 580q22 9 28 9q7 0 7 -7t-8 -25q-22 -46 -75 -46q-24 0 -69.5 11t-62.5 11t-26 -7l-23 -149l4 -5q49 33 111 33q81 0 140 -51q64 -56 64 -143q0 -96 -68 -155q-64 -55 -156 -57q-85 -1 -143 36t-65 103q-6 57 25 102q34 49 94 49q21 0 37.5 -16t16.5 -36
q0 -12 -7 -23q-22 15 -47 15q-33 0 -55.5 -25t-19.5 -65q3 -50 44 -84q45 -39 116 -37q73 2 112 52q38 47 38 127q0 76 -35 127q-38 58 -106 58q-63 0 -112 -46q-6 -5 -9 -5q-4 0 -2 17l29 220q2 18 43 18q19 0 42 -4q64 -11 84 -11q29 0 54 9z" />
    <glyph glyph-name="six" unicode="6" horiz-adv-x="453" 
d="M7 282q-3 -129 59 -211q54 -72 148 -72q87 0 144 62q51 56 51 127q0 74 -55 128.5t-140 54.5q-45 0 -81 -24.5t-40 -60.5q-3 -20 9 -20q10 0 11 15q2 37 32 54q26 15 66 11q60 -7 94 -53q29 -42 29 -103q0 -79 -44 -134q-32 -39 -78 -39q-53 0 -85 48q-47 68 -47 215
q0 70 13 132q25 127 104 157q22 9 46 9q69 0 82 -54q2 -12 2 -23q0 -67 -75 -74q2 -34 44 -34q16 0 30 7q53 28 50 89q-2 49 -43.5 77.5t-97.5 25.5q-109 -5 -172 -106q-54 -86 -56 -204z" />
    <glyph glyph-name="seven" unicode="7" horiz-adv-x="331" 
d="M121 29q-2 -3 2.5 -4.5t5.5 -4.5q0 -6 -7 -5q-16 2 -73 -18q-62 -21 -73 -22q-7 0 -9 5q0 6 7.5 7.5t9.5 3.5q78 63 174 250q32 63 138 296q-46 -14 -92 -14q-15 0 -44 2t-46 2q-69 0 -110 -34q-13 -11 -16 -11q-14 0 -4 14q33 44 50 93q4 10 30 3q41 -11 105 -11
q59 0 156 11q18 2 18 -4q0 -3 -2 -8q-12 -22 -34 -68q-168 -376 -186 -483z" />
    <glyph glyph-name="eight" unicode="8" horiz-adv-x="443" 
d="M35 457q-1 -70 56 -109q13 -9 113 -53q87 -39 110 -88q13 -27 13 -57q0 -53 -34 -91q-37 -40 -96 -41t-96 38q-35 34 -35 105q0 99 54 126q14 7 14 12q0 4 -9 4q-5 0 -13 -2q-51 -16 -81.5 -57.5t-30.5 -89.5q0 -66 54 -110q58 -45 140 -45q83 0 138 49q60 55 60 119
q0 56 -45 106.5t-118 80.5q-64 27 -89 45q-48 34 -48 80q1 45 36.5 74.5t80.5 29.5q48 0 78 -33q34 -35 34 -83q0 -56 -44 -100q-10 -10 -10 -14q1 -2 3 -2q4 0 15 5q86 42 86 117q0 50 -41 85q-44 38 -113 38t-121 -34q-60 -39 -61 -105z" />
    <glyph glyph-name="nine" unicode="9" horiz-adv-x="466" 
d="M156 168q6 9 6 19q0 16 -13.5 28.5t-31.5 15.5q-39 5 -73.5 -21.5t-37.5 -60.5q-7 -73 47 -114q49 -38 131 -38q73 0 137 57q58 52 81.5 123t23.5 148q0 125 -55.5 198t-148.5 73q-87 0 -144 -62q-51 -56 -51 -127q0 -74 53 -127q57 -56 142 -56q45 0 81 24.5t41 61.5
q2 19 -10 19q-10 0 -11 -15q-1 -36 -32 -53q-27 -15 -66 -11q-60 6 -94 53q-30 42 -30 103q0 79 45 134q32 39 77 39q53 0 87 -49q45 -68 45 -214q0 -70 -12.5 -133t-54.5 -113q-47 -55 -100 -56q-57 -1 -94 22.5t-40 69.5q-2 33 17 53.5t46 20.5q21 0 39 -12z" />
    <glyph glyph-name="colon" unicode=":" horiz-adv-x="111" 
d="M29 0q13 0 22 12.5t9 29.5q0 18 -9 31t-22 13q-29 0 -29 -44q0 -42 29 -42zM29 198q13 0 22 12.5t9 29.5q0 18 -9 31t-22 13q-29 0 -29 -44q0 -42 29 -42z" />
    <glyph glyph-name="semicolon" unicode=";" horiz-adv-x="135" 
d="M13 -56q-7 0 -13 3q-3 0 -3 4q1 3 5 3q26 -3 42 18q15 18 15 42q0 29 -21 27q-14 -2 -15 -18q-1 -7 -8 0q-9 11 -9 27q0 18 11.5 26.5t23.5 8.5q20 0 31.5 -16.5t11.5 -36.5q0 -33 -20.5 -60.5t-50.5 -27.5zM29 198q13 0 22 12.5t9 29.5q0 18 -9 31t-22 13q-29 0 -29 -44
q0 -42 29 -42z" />
    <glyph glyph-name="less" unicode="&#x3c;" horiz-adv-x="277" 
d="M198 381q2 1 3 2q7 0 7 -16q0 -22 -10 -29l-163 -113l163 -111q10 -7 10 -29q0 -16 -7 -16q-2 0 -3 1l-198 138q-9 6 -9 18t9 18z" />
    <glyph glyph-name="equal" unicode="=" horiz-adv-x="277" 
d="M13 336h200q13 0 13 -14v-14q0 -13 -13 -13h-200q-13 0 -13 13v14q0 14 13 14zM13 259h200q13 0 13 -13v-14q0 -14 -13 -14h-200q-13 0 -13 14v14q0 13 13 13z" />
    <glyph glyph-name="greater" unicode="&#x3e;" horiz-adv-x="281" 
d="M11 381l-4 2q-7 0 -7 -16q0 -22 11 -29l162 -113l-162 -111q-11 -7 -11 -29q0 -16 7 -16q2 0 4 1l197 138q9 6 9 18t-9 18z" />
    <glyph glyph-name="question" unicode="?" horiz-adv-x="438" 
d="M207 87q13 0 22 -13t9 -31t-9 -30.5t-22 -12.5q-29 0 -29 43q0 44 29 44zM198 123q0 -19 8 -19q6 0 8 15q11 107 78 148q122 74 122 166q0 43 -29 88q-49 77 -144 80q-77 3 -138 -41q-67 -49 -67 -123q0 -45 27 -77t74 -31q19 0 35 16.5t16 36.5q0 9 -4 18
q-15 -13 -36 -13q-24 0 -43 18t-19 49q0 56 47 95q45 36 103 35q55 -2 88 -47q30 -42 30 -101q0 -42 -27 -84q-23 -37 -57 -62q-72 -52 -72 -167z" />
    <glyph glyph-name="at" unicode="@" horiz-adv-x="692" 
d="M278 131q-50 0 -77 37q-25 33 -25 84q0 68 52.5 129.5t119.5 61.5q56 0 76 -50l13 44h65l-60 -215q-6 -22 -6 -32q0 -30 24 -30t55 23q79 59 79 181q0 92 -70 148q-65 52 -159 52q-126 0 -206.5 -84t-80.5 -212q0 -112 75 -179q72 -65 189 -65q114 0 210 69q6 5 13 5
q16 0 16 -13q0 -7 -6 -11q-106 -81 -232 -81q-65 0 -119 16q-93 27 -148 99t-55 169q0 101 61.5 182.5t157.5 115.5q55 19 118 19q116 0 188 -61q77 -65 77 -178q0 -56 -20.5 -105t-57.5 -82q-43 -38 -92 -38q-63 0 -75 61q-41 -60 -100 -60zM243 220q0 -59 42 -59
q47 0 84 74q31 63 31 116q0 64 -46 64q-44 0 -80 -78q-31 -66 -31 -117z" />
    <glyph glyph-name="A" unicode="A" horiz-adv-x="554" 
d="M556 3q0 -3 -7 -3q-8 0 -22.5 1t-21.5 1q-9 0 -27 -1t-27 -1q-11 0 -11 6q0 3 6 4t6 3q0 5 -59 149q-5 -21 -21 -21q-12 0 -12 12q0 9 9 9q4 0 8 -3q5 10 5 20q0 32 -39 57q-29 19 -84 17q-65 -1 -86 5q-41 -103 -65 -174q-8 -28 -24 -77q-3 -7 -30 -7q-46 0 -46 4t10 7
q21 6 58 90l74 168q-39 23 -39 58q0 53 34 53q15 0 15 -12q0 -11 -8 -11q-4 0 -8 4q-21 -2 -21 -23q0 -33 38 -42q24 55 124 296q6 14 10 14q3 0 14 -29l220 -548q6 -16 16.5 -19t10.5 -7zM349 271q-27 66 -81 200q-5 12 -10 0q-22 -59 -70 -176q60 3 83 1q48 -4 78 -25z
" />
    <glyph glyph-name="B" unicode="B" horiz-adv-x="482" 
d="M285 434q26 24 26 57q0 37 -32 65.5t-86 29.5v0q-75 0 -75 -31v-128q0 -7 5 -10q30 -17 69 -17q56 0 93 34zM400 204q6 66 -28.5 130t-80.5 63q-24 -1 -30 -10q-2 -2 -5 -19q-1 -7 -8 -7q-12 0 -8 14q4 13 17 23q1 1 -1 1q-33 -10 -65 -10q-34 0 -69 12q-4 0 -4 -3v-350
q0 -26 18 -30q37 -10 75 -10q69 0 114 30q62 40 75 166zM223 -4q-18 0 -54.5 3.5t-55.5 3.5q-11 0 -34.5 -1.5t-35.5 -1.5q-7 0 -7 4t7.5 6t7.5 9v553q0 8 -7.5 9.5t-7.5 5.5t7 4q8 0 22 -1.5t21 -1.5q19 0 55.5 5t55.5 5q60 0 112 -22q67 -28 67 -80q0 -49 -79 -84l-2 -2h8
q70 0 122 -62q49 -59 49 -131q0 -98 -78 -161q-72 -60 -173 -60z" />
    <glyph glyph-name="C" unicode="C" horiz-adv-x="466" 
d="M251 -4q-145 32 -203 161q-27 61 -27 127q0 78 37 147t102 113q80 54 168 54q65 0 109 -34q8 -6 7 -11q-1 -6 -10.5 -7t-19 -11.5t-12.5 -10.5q-4 0 -10 10q-20 36 -81 44q-8 1 -16 1q-58 0 -121 -49q-82 -63 -82 -187q0 -95 48 -184.5t121 -125.5q45 -21 94 -21
q55 0 82 28q-1 1 -1 3q0 13 13 13q3 0 5 -3q4 -4 -3 -14q-30 -48 -138 -48q-35 0 -62 5zM251 401q0 -45 36 -68q24 -14 29 -19q15 -14 19 -38q1 -7 1 -13q0 -37 -32 -47q-1 9 -8 9t-9 -5q-3 -6 4 -11q4 -3 10 -3q26 0 47 34q15 26 15 50q0 46 -74 101q-15 11 -15 34
q0 12 6 19q15 17 26 6q-1 -5 4 -7q5 -3 9 1t4 9q0 13 -20 13q-21 0 -36.5 -21.5t-15.5 -43.5z" />
    <glyph glyph-name="D" unicode="D" horiz-adv-x="471" 
d="M45 569q0 11 -7 11.5t-7 6.5q0 4 8 4q44 -4 72 -1q43 5 81 1q117 -11 195.5 -92t78.5 -200q0 -128 -90 -214.5t-219 -86.5q-11 0 -58 2q-36 2 -60 0q-8 -1 -8 4q0 6 7 6.5t7 11.5v547zM113 565v-538q0 -14 15 -15q40 -4 93 13q79 25 122 102q39 71 39 171q0 207 -131 259
q-49 20 -103 20q-13 0 -24 -1.5t-11 -10.5z" />
    <glyph glyph-name="E" unicode="E" horiz-adv-x="397" 
d="M366 591q20 0 13 -12q-5 -8 -5 -21q0 -5 -13 -2q-72 20 -241 18v-136q23 30 67 30q32 0 67 -18l46 -26q15 -6 31 -6q32 0 38 25q-1 0 -3 3q-4 5 1 9q7 1 9 -6.5t2 -14.5q0 -28 -30 -44q-22 -12 -47 -12q-23 0 -43 11l-48 32q-31 21 -52 21q-23 0 -38 -24v-399
q109 0 145 4q72 7 140 36q3 1 5 1q6 0 7 -8q0 -6 -3 -10q-12 -15 -16 -34q3 -2 3 -4q0 -5 -8 -4h-344q-16 0 -16 6l9.5 3.5t9.5 23.5v525q0 20 -9.5 23.5t-9.5 4.5q0 5 16 5h317z" />
    <glyph glyph-name="F" unicode="F" horiz-adv-x="381" 
d="M354 591q12 0 18 -1t6 -5t-7 -6q-18 -5 -26 -24q-3 -7 -17 -2q-66 23 -219 20v-149q50 41 109 41q35 0 66 -15q6 -3 4 -8q-1 -4 -8 -6q-16 -5 -22 -16q-4 -7 -18 2q-22 14 -56 14q-45 0 -75 -35v-391h6q7 -1 7 -6t-7 -4q-27 2 -43 2h4q-15 0 -42 -2q-8 -1 -8 4t8 6h6v551
q-1 17 -9.5 20t-8.5 5q0 5 16 5h316z" />
    <glyph glyph-name="G" unicode="G" horiz-adv-x="500" 
d="M155 544q80 53 167 53q64 0 109 -33q7 -6 7 -11q-1 -6 -10 -7q-12 -2 -20.5 -12t-11.5 -10q-4 0 -10 10q-26 45 -88 45q-76 0 -131 -49q-78 -69 -78 -215q0 -134 64 -226q51 -74 137 -74q21 0 41 5q76 18 76 88v209q0 15 -5 15q-10 2 -10 10q0 6 8 4q34 -9 67 -3
q5 0 6 -1t1 -6v-223q0 -11 7 -16q7 -1 4 -6q-2 -5 -8 -5q-11 -2 -21 -4q-14 -4 -22 -13q-57 -72 -155 -74q-60 -1 -115 31q-71 40 -109 112q-35 67 -35 146q0 78 34.5 147.5t100.5 112.5z" />
    <glyph glyph-name="H" unicode="H" horiz-adv-x="437" 
d="M44 573q0 7 -5 8q-10 2 -10 6t9 4q6 0 19.5 -1t20.5 -1t20.5 1t20.5 1t7 -4t-7 -5.5t-7 -9.5v-122q14 28 61 28q31 0 65 -28.5t57 -28.5q35 0 35 22q0 7 -6.5 9.5t-6.5 6.5q0 6 8 6q4 0 12 -8v114q0 8 -7.5 10.5t-7.5 5.5q0 4 7 4t21 -1t20 -1q7 0 21 1t20 1q8 0 8 -4
q0 -3 -7.5 -6t-7.5 -11v-551q0 -8 7.5 -9t7.5 -6q0 -4 -8 -4q-7 0 -21 1t-21 1q-6 0 -19.5 -1t-20.5 -1t-7 4q0 5 7.5 6t7.5 8v416q-22 -44 -84 -44q-36 0 -68 32.5t-47 32.5t-15 -14q0 -6 3 -11l3 -5q0 -8 -10 -8q-4 0 -7 3v-401q0 -8 7 -9t7 -6q0 -4 -7 -4t-21 1t-21 1
q-6 0 -19.5 -1t-19.5 -1q-9 0 -9 4q0 5 7.5 6t7.5 8v555z" />
    <glyph glyph-name="I" unicode="I" horiz-adv-x="191" 
d="M66 569q0 11 -7.5 11.5t-7.5 6.5q0 5 8 4q41 -3 81 0q8 1 8 -4q0 -6 -7 -6.5t-7 -10.5v-549q0 -10 7 -10.5t7 -6.5q0 -4 -8 -4q-42 3 -81 0q-8 -1 -8 4q0 6 7.5 6.5t7.5 11.5v547z" />
    <glyph glyph-name="J" unicode="J" horiz-adv-x="443" 
d="M332 569q0 11 -7.5 11.5t-7.5 6.5q0 5 8 4q40 -3 81 0q8 1 8 -4q0 -6 -7.5 -6.5t-7.5 -10.5v-382q0 -56 5 -65q6 -11 -1 -25q-22 -44 -78.5 -74.5t-114.5 -29.5q-90 0 -134 30t-60 99q0 3 -7 7q-3 1 -3 5q1 3 6 3q34 -1 62 4q4 0 6 -3t-2.5 -5.5t-4.5 -5.5q4 -62 49 -94
q39 -28 90 -24q67 6 93.5 44t26.5 127v388zM161 446q-30 -4 -50.5 -31t-20.5 -62q0 -28 15 -52q29 -47 29 -75q0 -17 -7 -34q-13 -29 -34 -27q-13 1 -13 -4q1 -2 5 -3q26 -4 50 13t34 52q4 12 4 25q0 30 -45 97q-14 21 -14 42q0 39 46 49q7 2 7 6q-1 4 -6 4z" />
    <glyph glyph-name="K" unicode="K" horiz-adv-x="465" 
d="M52 569q0 11 -6.5 11.5t-6.5 6.5q0 5 7 4q40 -3 81 0q8 1 8 -4q0 -6 -7 -6.5t-7 -10.5v-236q0 -13 7 -3q107 145 165 245q2 4 -2.5 5t-4.5 6q2 4 9 4q21 -2 43 -2q23 0 44 2q9 0 7 -4q0 -6 -8 -8q-4 0 -12 -4q-41 -28 -124 -127q-7 -8 -4 -14l219 -414q4 -6 23 -12
q6 -1 4 -5q-1 -4 -5 -4q-23 2 -47 2q-23 0 -45 -2q-7 0 -10 5q-2 5 5 5q6 1 0 12l-189 357q-3 6 -7 2l-64 -83q-4 -6 -4 -13v-263q0 -10 7 -10.5t7 -6.5q0 -5 -8 -4q-42 3 -81 0q-7 -1 -7 4q0 6 6.5 6.5t6.5 11.5v547z" />
    <glyph glyph-name="L" unicode="L" horiz-adv-x="440" 
d="M334 387q-42 -17 -42 -75q0 -51 37 -85q61 -57 57 -105q-2 -33 -23 -37q-8 -2 -10 -6q3 -2 5 -3q26 2 42.5 26t14.5 62q-3 35 -27 65q-11 14 -52 48q-29 26 -29 55t28 46q6 3 5 7q-2 4 -6 2zM136 13q225 0 283 36q7 4 12 4q10 0 2 -10q-6 -8 -17 -35q3 -1 3 -4
q0 -5 -7 -4h-360q-15 0 -15 6l9.5 4t9.5 23v220h-1v316q0 11 -5 12h-2q-7 0 -7 7q0 5 7 3q27 -2 43 -2h-4q15 0 42 2q8 2 8 -3q0 -7 -7 -7.5t-7 -10.5v-548q0 -9 13 -9z" />
    <glyph glyph-name="M" unicode="M" horiz-adv-x="657" 
d="M482 592q-42 -132 -113 -325l-110 321q-6 19 -11 19q-3 0 -7 -13l-132 -491q-9 -34 -25 -60.5t-26.5 -29t-10.5 -8.5q0 -5 13 -5h70q17 0 7 14q-9 12 -9 33t16 84l82 330l97 -276q17 -49 29 -49q10 0 3 11.5t3 39.5q2 4 101 274l125 -440q3 -10 -3.5 -11t-4.5 -6t9 -4
q41 3 85 0q3 0 6 4q-2 5 -9.5 6t-10.5 12l-149 566q-6 23 -13 23q-6 0 -12 -19zM-8 673q16 6 34 6q62 0 95 -50q5 -8 20 -46q12 -30 26 -41q10 -8 23 -8q14 0 15 12q1 5 7 2q5 -3 2 -8q-18 -30 -57 -16q-34 11 -57 64q-33 73 -70 79q-41 7 -46 -9q4 -9 -7 -9q-6 0 -5 8
q1 10 20 16z" />
    <glyph glyph-name="N" unicode="N" horiz-adv-x="455" 
d="M409 -4l-290 471q-5 8 -8 8t-2 -7l8 -421q0 -10 14 -37q5 -10 -7 -10q-19 2 -48 0q-6 0 -7 3t2.5 8t12.5 37l10 449q0 10 -3 13l-37 58q-5 8 -13 11.5t-8 6.5q0 6 9 5q44 -2 68 -0.5t40 -25.5l255 -438l-5 417q0 17 -12 37q-3 5 -2 8q2 3 7 2q23 -1 47 0q6 1 8 -2
q1 -2 -2 -7q-6 -5 -13 -37l-11 -421q-4 -123 11 -128q3 -2 3 -6q0 -10 -9 -10t-18 16z" />
    <glyph glyph-name="O" unicode="O" horiz-adv-x="561" 
d="M482 298q0 120 -56.5 204t-136.5 84q-79 0 -135 -84t-56 -204q0 -121 56 -205t135 -84q80 0 136.5 84t56.5 205zM555 298q0 -119 -72 -209q-78 -95 -194 -95q-115 0 -193 96q-72 89 -72 208q0 117 73 207q77 96 192 96q116 0 193 -96q73 -89 73 -207z" />
    <glyph glyph-name="P" unicode="P" horiz-adv-x="441" 
d="M37 569q0 11 -7 12t-7 7q0 5 7 3q42 -3 81 0q38 4 80 -2q103 -16 169.5 -79t66.5 -152q0 -102 -86 -170t-209 -68h-22q-5 0 -5 -8v-91q0 -10 7.5 -10.5t7.5 -5.5t-9 -4q-27 2 -41 2t-40 -2q-7 -1 -7 4t7 5.5t7 11.5v547zM105 557v-409q0 -12 15 -12q113 0 173 65
q54 59 54 156q0 192 -168 218q-30 4 -61 2q-11 0 -13 -3v-17z" />
    <glyph glyph-name="Q" unicode="Q" horiz-adv-x="565" 
d="M294 598q108 0 184.5 -88.5t76.5 -213.5q0 -86 -39 -158t-103 -110q75 -100 136 -97q74 4 79 31q-2 3 -2 7q0 12 13 12q9 0 10 -13q0 -17 -29 -33q-46 -26 -101 -26q-84 0 -140 55q-13 13 -29 37q-26 -6 -56 -6q-108 0 -184.5 88.5t-76.5 212.5q0 125 76.5 213.5
t184.5 88.5zM341 15q-22 34 -32 46q-19 25 -40 35q-14 6 -29 6q-27 0 -38 -20q2 -2 2 -6q0 -9 -11 -6q-10 3 -6 13q11 29 44 41q24 9 50 6q38 -4 65 -24q21 -16 49 -55q88 87 88 245q0 103 -56 193q-58 95 -133 95q-78 0 -133.5 -84t-55.5 -204t55.5 -203.5t133.5 -83.5
q32 0 47 6z" />
    <glyph glyph-name="R" unicode="R" horiz-adv-x="451" 
d="M133 239q10 -10 30 -10q79 0 130.5 49t51.5 126q0 79 -50.5 128.5t-128.5 49.5q-28 0 -55 -7v-565q15 2 15 -6q0 -4 -5 -4q-8 0 -23 1t-23 1h5q-8 0 -23 -1t-23 -1q-5 0 -5 4q0 8 15 6v551q0 11 -9 17t-10 8q0 5 19 5q5 0 15.5 -1t15.5 -1q16 0 49 2t49 2q97 0 165 -44
q79 -52 79 -144q0 -117 -157 -176q-4 -1 -4 -5l1 -3q4 -78 50 -147q53 -80 127 -80q4 0 13 1.5t13 1.5q7 0 7 -4q0 -6 -19 -11q-15 -4 -25 -4q-71 0 -130 51q-52 45 -83 115q-3 10 -21 62q-3 10 -18 10q-52 0 -52 28q0 11 8 11q7 0 7 -11q0 -3 -1 -5z" />
    <glyph glyph-name="S" unicode="S" horiz-adv-x="515" 
d="M217 594q-55 -12 -89 -47.5t-34 -77.5q0 -51 49 -89q34 -27 167 -101.5t133 -146.5q0 -56 -65 -91q-54 -30 -115 -29q-55 1 -111.5 36t-74.5 74q-6 11 -9 28q-3 10 -8 10q-4 0 -18.5 -10t-18.5 -12q-11 -4 -11 -11q0 -6 5 -15q30 -58 103 -90q68 -30 151 -29
q130 2 199 80q38 44 38 88q0 81 -118 158q-82 47 -206 119q-43 27 -43 69q0 35 36 55.5t88 20.5q98 0 139 -67q6 -10 11 -10q4 0 10.5 11.5t11.5 14.5q10 8 -1 18q-57 51 -156 51q-32 0 -63 -7z" />
    <glyph glyph-name="T" unicode="T" horiz-adv-x="566" 
d="M531 591q21 0 22 -13q0 -6 7 -26q6 -14 -4 -14q-5 0 -18 5q-73 30 -196 29q-20 0 -20 -18v-544h7q8 -1 8 -6t-8 -4q-27 2 -43 2h5q-17 0 -43 -2q-8 -1 -8 4t8 6h7v546q0 16 -20 16q-123 1 -197 -29q-12 -5 -17 -5q-10 0 -4 14q5 11 6.5 25t22.5 14h485z" />
    <glyph glyph-name="U" unicode="U" horiz-adv-x="544" 
d="M74 289q0 84 31 148q16 35 56 83q31 37 31 56q0 18 -12 18t-30 -12q10 -7 10 -22q0 -19 -22 -43q-67 -70 -94 -117q-37 -66 -37 -144q0 -121 77 -193q74 -70 193 -70q69 0 143 38q16 8 29 8q7 0 20.5 -3.5t21.5 -3.5t8 4q0 2 -7.5 8t-7.5 21v509q0 9 7 10.5t7 6.5
q0 3 -4 3q-7 0 -21.5 -1.5t-21.5 -1.5q-8 0 -22 1.5t-21 1.5q-5 0 -5 -3q0 -5 7 -6.5t7 -8.5v-476q0 -89 -132 -89q-109 0 -164 88q-47 74 -47 190zM-123 744q0 -11 7.5 -21.5t17.5 -10.5q13 0 7 13q-13 7 -13 25q0 22 18.5 35t45.5 13q48 0 66 -37t55 -111q13 -23 41.5 -37
t56.5 -14q13 0 30.5 6.5t17.5 17.5q0 7 -10 7q-12 0 -6 -10q-4 -13 -23 -13q-40 0 -70 49q-21 42 -41 83q-38 70 -110 70q-37 0 -63.5 -19t-26.5 -46z" />
    <glyph glyph-name="V" unicode="V" horiz-adv-x="508" 
d="M24 587q0 4 6 4q7 0 21 -1t21 -1t22.5 1t23.5 1q9 0 9 -7q0 -2 -5 -3t-5 -4q0 -11 166 -452q1 -2 4 -4q2 1 4 4q15 41 45 122q39 100 107 302q3 12 10 35q2 7 11 7q52 0 52 -4t-9 -8q-20 -7 -52 -89l-130 -331q-20 -53 -60 -161q-5 -14 -9 -14q-2 0 -12 29
q-28 78 -84 233l-115 323q-4 10 -12.5 12.5t-8.5 5.5z" />
    <glyph glyph-name="W" unicode="W" horiz-adv-x="725" 
d="M379 276l94 -263q11 -29 14 -29q4 0 8 14l29 92q23 60 151 400q15 41 39 88q9 7 9 9q0 4 -10 3q-34 1 -33 1q-9 0 -12 -7q-4 -16 -12 -49q-33 -117 -139 -428l-98 271q22 67 75 195q2 3 9 9q5 3 5 5q0 4 -45 4q-8 0 -11 -7q-5 -19 -14 -56q-12 -41 -34 -111
q-56 156 -56 160q0 3 4.5 4.5t4.5 4.5q0 5 -9 5q-8 0 -25 -1t-26 -1q-80 0 -80 30q0 10 11 11.5t11 3.5q0 4 -7 4q-25 0 -25 -24q0 -20 32.5 -29.5t39.5 -27.5l89 -249q-24 -77 -69 -205q-171 477 -171 474q0 3 5 4t5 6q0 4 -9 4q-8 0 -24 -1t-25 -1q13 0 -9 1t-30 1
q-6 0 -6 -4q0 -3 8.5 -5t12.5 -13q17 -43 198 -556q10 -29 13 -29q4 0 9 14q11 31 33.5 92.5t69.5 185.5z" />
    <glyph glyph-name="X" unicode="X" horiz-adv-x="517" 
d="M194 243q12 20 36 58q3 6 0 11l-146 258q-3 5 -14 11q-12 0 -12 8q0 3 6 2q28 -2 45 -2h-5q22 0 48 2q7 2 10 -3q2 -6 -5 -7q-5 0 0 -10l113 -198q2 -4 4 0q103 164 150 263q2 4 -2 5t-5 6q0 4 8 4q22 -2 44 -2t44 2q7 0 7 -4q0 -7 -6.5 -7.5t-12.5 -3.5
q-60 -45 -215 -279q-4 -6 -1 -12l185 -324q3 -5 24 -13q5 -1 4 -5q-1 -3 -5 -3q-24 2 -47 2q-24 0 -45 -2q-7 0 -11 4q-2 6 5 6q6 1 0 12l-149 262q-2 3 -3 6q-1 0 -4 -4q-57 -93 -114 -185q-65 -108 -105 -190q-1 -4 3.5 -5.5t4.5 -4.5q0 -6 -8 -5q-21 2 -44 2t-44 -2
q-7 -1 -7 5t7 6.5t12 4.5q64 45 250 331z" />
    <glyph glyph-name="Y" unicode="Y" horiz-adv-x="524" 
d="M301 304v-293q4 -1 9 -1.5t5 -5.5q0 -4 -7 -4t-21.5 1t-21.5 1h4q-8 0 -22.5 -1t-21.5 -1q-6 0 -6 4q0 5 4.5 5.5t9.5 1.5v305q0 7 -3 11l-172 237q-6 7 -19 16q-10 2 -10 6q0 5 6 5q8 0 24.5 -1t25.5 -1q8 0 25.5 1t25.5 1q11 0 11 -5q0 -6 -10 -6q77 -117 158 -235
q3 1 5 3q30 36 108 165q85 138 85 163q0 1 -4 2.5t-4 4.5q0 5 8 5q7 0 22 -1t22 -1t21.5 1t22.5 1q7 0 7 -5t-7 -7q-11 -4 -12 -5q-46 -32 -133 -155q-11 -17 -119 -177q-16 -25 -16 -35z" />
    <glyph glyph-name="Z" unicode="Z" horiz-adv-x="416" 
d="M188 578q-97 -7 -151 -27q-7 -3 -8 -1q-2 2 4 9q5 12 15 33q5 10 18 4q15 -5 76 -5h254q9 0 9 -5t-8.5 -5.5t-13.5 -12.5l-269 -540q-9 -18 8 -18q213 0 275 38q8 5 12 5q9 0 1 -11q-12 -16 -16 -34q4 -4 2 -7q-2 -2 -6 -2h-350q-11 -1 -11 5q0 2 6 16q97 195 274 549
q5 11 -6 11q-72 0 -115 -2z" />
    <glyph glyph-name="bracketleft" unicode="[" horiz-adv-x="237" 
d="M86 -6q0 -31 28 -31h69q21 0 21 -15q0 -17 -21 -17h-129q-30 0 -39 9t-9 40v631q0 32 8.5 41t39.5 9h129q21 0 21 -16q0 -17 -21 -17h-69q-28 0 -28 -30v-604z" />
    <glyph glyph-name="backslash" unicode="\" horiz-adv-x="714" 
d="M1 472q0 -9 -4 -9q-10 0 -10 26q0 19 13 33q30 34 78 34q56 1 95 -30q36 -29 67 -92q8 -16 61 -166q42 -120 85 -171q73 -88 171 -88q52 0 88 30q-4 15 9 15q9 0 9 -9q0 -21 -38 -35q-26 -11 -53 -13q-12 -2 -25 -2q-97 0 -183 73q-73 62 -109 147q-27 74 -55 148
q-43 113 -72.5 143t-66.5 30q-58 0 -60 -64z" />
    <glyph glyph-name="bracketright" unicode="]" horiz-adv-x="246" 
d="M109 -7q0 -31 -28 -31h-69q-21 0 -21 -15q0 -17 21 -17h129q30 0 39 9t9 40v631q0 31 -8.5 40.5t-39.5 9.5h-129q-21 0 -21 -17q0 -16 21 -16h69q28 0 28 -31v-603z" />
    <glyph glyph-name="asciicircum" unicode="^" horiz-adv-x="309" 
d="M271 634q-10 -5 -22 3l-93 67l-93 -67q-11 -8 -22 -3q-5 3 0 7l95 103q8 8 21 8q12 0 20 -8l95 -103q4 -4 -1 -7z" />
    <glyph glyph-name="grave" unicode="`" horiz-adv-x="242" 
d="M77 760q54 -73 109 -137q8 -10 4 -14q-4 -5 -15 4q-37 30 -139 109q-6 5 6.5 14t22.5 22q7 10 12 2z" />
    <glyph glyph-name="a" unicode="a" horiz-adv-x="454" 
d="M437 3q-51 21 -84 90q-2 -28 -40 -57q-44 -34 -106 -41q-13 -1 -26 -1q-69 0 -115 36.5t-46 91.5q0 28 13 57q31 69 115 93q49 15 99 11q-14 30 -47 58q-39 32 -76 32q-21 0 -39 -12l-21 -12q-7 0 -7 6q0 9 10 16q26 17 65 17q54 0 99 -25q112 -62 165 -248
q24 -86 51 -99q8 -4 8 -10q0 -11 -18 -3zM76 138q0 -45 28 -81q33 -45 99 -45q46 0 81 26q57 42 48 90q-21 42 -67 126q-29 14 -58 14q-53 0 -92 -39t-39 -91z" />
    <glyph glyph-name="b" unicode="b" horiz-adv-x="464" 
d="M26 573q0 15 -6 16t-6 5q0 9 11 7q15 -4 30 -7q16 -4 32 1q13 4 13 -4q0 -5 -6 -6t-6 -11v-215q0 -10 6 -6q47 32 117 32q24 0 43 -4q86 -16 135 -76q44 -54 44 -124q0 -85 -59 -138q-63 -56 -169 -56q-53 0 -103 12q-13 3 -62 1q-11 0 -13 5q-1 2 -1 16v552zM88 316
v-278q23 -37 113 -37q163 0 163 179q0 78 -50.5 132.5t-116.5 54.5q-61 0 -109 -51z" />
    <glyph glyph-name="c" unicode="c" horiz-adv-x="403" 
d="M68 309q25 34 72.5 56t100.5 22q59 0 108 -29q7 -6 1 -19q-12 -22 -39 -30q-6 -2 -9 -1q-4 1 -3 5q1 6 1 11q0 44 -71 44q-21 0 -36 -5q-102 -34 -102 -157q0 -30 7 -59q13 -56 48 -93q41 -42 97 -42q16 0 32 3q69 14 98 49q-9 8 2 18q5 4 11 4q8 0 9 -7q2 -13 -29 -38
q-62 -50 -143 -50q-84 0 -142 52.5t-58 135.5q0 71 45 130z" />
    <glyph glyph-name="d" unicode="d" horiz-adv-x="469" 
d="M392 25q3 -13 -4 -25q-7 -15 2 -15q4 0 8 5q25 25 49 41q6 4 6 7q0 2 -3 6.5t-4 8.5l-149 529q-1 4 1 18q2 9 -3 9q-4 0 -11.5 -4t-40.5 -11q-13 -1 -13 -10q0 -4 1 -10q1 0 59 -196q-19 3 -37 3q-55 0 -104 -25q-57 -29 -88.5 -79t-31.5 -106q0 -47 22 -88
q21 -37 63 -63t90 -29q109 -5 169 73q5 5 7 0zM310 306q33 -116 56 -194q-3 -41 -34 -68q-34 -30 -85 -30q-10 0 -21 1q-75 17 -115 95q-24 47 -24 99q0 44 17 81q36 74 125 74q13 0 25 -2q32 -6 41 -30q2 -5 3 -10q1 -6 0 -9q-1 -4 -5 -4q0 15 -14 15q-7 0 -13 -8t1 -18
t18 -10q16 0 24 16q1 1 1 2z" />
    <glyph glyph-name="e" unicode="e" horiz-adv-x="444" 
d="M158 225q10 0 22 -2q47 -8 144 -17q21 -1 26 17q8 26 -5 60q-15 38 -47 62t-70 24q-18 0 -35 -6q-104 -34 -104 -157q0 -30 7 -59q13 -56 49 -93q41 -42 98 -42q15 0 32 3q71 15 100 49q-9 8 2 18q16 11 19 -3q3 -13 -28 -38q-62 -50 -146 -50q-83 0 -142 51t-60 134
q-2 70 39 125t109 76q35 12 71 12q41 0 78 -16q74 -33 100 -93q10 -30 19 -59q20 -14 -41 -24q-25 -5 -53 -5q-14 0 -166 19q-46 5 -73 -11q-11 -6 -11 -1q0 11 29 19q23 7 37 7z" />
    <glyph glyph-name="f" unicode="f" horiz-adv-x="386" 
d="M436 631q6 -2 5 -5q-2 -5 -12.5 -8t-14.5 -9q-7 -6 -9 -6q-3 0 -7 9q-18 35 -72 35q-39 0 -69 -24q-33 -26 -42 -67q-3 -16 -3 -55v-109q74 -22 107 -22q20 0 39 5q29 8 29 28q0 6 -6 12q-2 -5 -6 -5q-8 0 -8 7q-1 6 7 8q9 2 15.5 -6t6.5 -17q-4 -56 -93 -56
q-47 0 -91 13v-329q0 -21 6 -21.5t6 -5.5q-1 -5 -8 -5q-22 3 -52 2q-12 0 -14 3v18v355q-18 4 -44 4q-90 0 -81 -46q7 -3 7 -7t-7 -5q-6 -1 -10 7q-6 16 6.5 33t37.5 29q41 19 91 13v74q0 78 66 134q61 51 135 51q9 0 18 -1q32 -4 48 -16z" />
    <glyph glyph-name="g" unicode="g" horiz-adv-x="468" 
d="M239 387q85 0 149 -41.5t64 -96.5t-64 -95t-149 -40t-149 40t-64 95q0 51 55 90.5t131 45.5q-7 93 65 183q9 12 16 12q6 0 7 -9q0 -6 -4 -20t-4 -21q0 -6 2 -12q9 -19 0 -20q-25 -3 -48 -45q-21 -38 -21 -67q5 1 14 1zM173 106q6 -1 7 5q1 5 -6.5 6.5t-13.5 1.5
q-29 0 -50 -21t-21 -49q0 -10 4 -21q20 -61 119 -61q24 0 71 6.5t71 6.5q28 0 50 -6q48 -15 48 -61q0 -35 -27.5 -69t-72.5 -49q-57 -18 -123 -18q-87 0 -149 32q-70 36 -86 105q-3 16 -23 13q-24 -4 -37 -2q-8 1 -12.5 -2t-1.5 -10q27 -85 125 -126q74 -30 173 -31
q115 -2 192 54q71 51 71 118q0 66 -74 101q-28 13 -69 13q-45 0 -108 -15q-23 -5 -44 -5q-55 0 -63 40q-4 21 9.5 35t40.5 9zM259 293q2 -1 2 -3q0 -4 -5 -4q-5 1 -10 7q-22 28 -32 79q-51 -7 -83.5 -41t-32.5 -82q0 -53 40 -87.5t101 -34.5t100.5 34.5t39.5 87.5
q0 54 -39.5 89.5t-100.5 35.5h-13q4 -17 9 -31q11 -34 24 -50z" />
    <glyph glyph-name="h" unicode="h" horiz-adv-x="411" 
d="M82 566v-219q0 -8 4 -4q31 35 80 35q41 0 75 -21q48 -29 66 -101l54 -185q3 -13 11.5 -18.5t8.5 -12.5q0 -6 -9 -12q-21 -14 -35 -35q-6 -10 -10 -10q-6 0 -11 19l-77 261q-37 87 -98 91q-34 2 -44 -32q-4 -12 -15 -9v-293v-16q-3 -5 -13 -5q-39 2 -50 1q-7 -1 -7 4
q-1 5 5 5.5t6 21.5v542q0 14 -6 14.5t-6 5.5q0 8 13 5q31 -10 59 -5q11 1 11 -7q0 -4 -6 -5t-6 -15z" />
    <glyph glyph-name="i" unicode="i" horiz-adv-x="164" 
d="M105 479q9 13 9 26q0 20 -36 57q-5 5 -5 13q0 7 4 8q11 4 4 8q-7 3 -17 -2q-25 -14 -25 -44q0 -16 8.5 -28.5t23.5 -21t15 -19.5q0 -5 -5 -7q-12 -4 -6 -8q6 -3 15.5 3.5t14.5 14.5zM107 365q0 8 2.5 11.5t1.5 5.5q-1 4 -11 2q-16 -3 -29 0l-26 6q-12 2 -12 -6
q0 -4 6.5 -5t6.5 -15v-343q0 -10 -6 -11t-6 -5q0 -9 13 -5q16 5 32 2q15 -3 29 -7q12 -1 12 7q0 4 -6.5 5t-6.5 15v343z" />
    <glyph glyph-name="j" unicode="j" horiz-adv-x="183" 
d="M123 479q9 14 9 27q0 20 -36 56q-5 6 -5 13t4 8q11 4 4 8q-8 3 -18 -2q-24 -14 -24 -45q0 -15 8 -27t26 -22q12 -8 12 -19q0 -5 -5.5 -7.5t-5.5 -5.5t5 -3t12 4.5t14 14.5zM126 363q0 8 3 11.5t2 6.5t-11 1q-17 -3 -30 0q-13 4 -26 7q-11 1 -11 -6q0 -4 6.5 -5t6.5 -16
v-432q0 -82 -45 -121q-28 -25 -95 -25q-19 0 -73 30q-50 27 -51 27q-3 -3 -16 -5q-9 -1 -9 -8q0 -11 24.5 -30t50.5 -26t55 -7q85 0 150 51q69 55 69 137v410z" />
    <glyph glyph-name="k" unicode="k" horiz-adv-x="380" 
d="M19 596q0 8 11 6l30 -6q16 -4 32 1q13 4 13 -5q0 -4 -6 -5t-6 -11v-372q0 -21 0 -6q0 -2 1 -2t4 4q64 59 165 211q2 3 -1.5 4t-3.5 5q1 5 8 4q39 -4 79 0q3 -1 6 -4q-1 -5 -8 -7q-10 -3 -11 -3q-42 -27 -126 -119q-4 -6 -1 -12q55 -87 160 -261q3 -5 22 -11q5 -2 4 -5
t-5 -3q-46 4 -89 0q-10 -1 -10 7q0 1 4 1.5t4 3.5q0 2 -3 8l-125 210q-6 11 -11 5q-28 -32 -63 -74v-130q0 -20 6 -20.5t6 -5.5q-1 -5 -8 -5q-26 3 -52 2q-15 -1 -15 23l1 552q0 14 -6 14.5t-6 5.5z" />
    <glyph glyph-name="l" unicode="l" horiz-adv-x="149" 
d="M40 574q0 15 -6.5 16t-6.5 5q0 9 12 7q14 -4 29 -7q16 -4 32 1q14 4 14 -4q0 -5 -6.5 -6t-6.5 -11v-544q0 -21 6 -21.5t6 -5.5q-1 -5 -8 -4q-15 1 -53 0q-10 0 -11 3t-1 19v552z" />
    <glyph glyph-name="m" unicode="m" horiz-adv-x="599" 
d="M509 290l66 -219q4 -12 12.5 -18t8.5 -12t-10 -13q-24 -15 -36 -35q-6 -10 -11 -10q-6 0 -11 19l-70 265q-14 52 -37 76t-57 24q-27 0 -46.5 -15.5t-19.5 -41.5l1 -290q0 -10 6 -10.5t6 -5.5q1 -5 -7 -5q-37 3 -73 0q-4 2 -7 4q0 6 6 6.5t6 11.5v291q0 34 -27 53
q-21 15 -47 15q-34 0 -55 -24q-10 -12 -10 -44v-292q0 -10 6.5 -10.5t6.5 -5.5t-7 -5q-37 3 -74 0q-4 2 -7 4q0 6 6.5 6.5t6.5 11.5v341q0 15 -6 16t-6 5q0 8 11 6l26 -6q13 -4 30 0q9 1 11 -2q1 -3 -2 -6.5t-3 -5.5q1 -1 1 -2q2 0 6 3q32 26 82 26q75 0 96 -52q4 -9 10 0
q33 52 95 52q43 0 76 -30t47 -76z" />
    <glyph glyph-name="n" unicode="n" horiz-adv-x="406" 
d="M96 20q0 -10 6.5 -10t6.5 -6q0 -5 -7 -5q-30 3 -37 3q-8 0 -37 -3q-8 0 -7 5q0 6 6.5 6t6.5 11v343q0 14 -6 15t-6 5q0 8 10 6l26 -6q14 -3 30 0q10 2 12 -2q1 -3 -2 -6t-3 -5q-1 -3 1 -3q1 0 4 3q29 25 73 25q43 0 78 -31q32 -29 46 -75l64 -219q4 -12 13 -18t9 -12
q0 -7 -10 -13q-25 -16 -36 -35q-7 -10 -11 -10q-7 0 -12 19l-69 265q-27 103 -103 99q-50 -3 -46 -57v-289z" />
    <glyph glyph-name="o" unicode="o" horiz-adv-x="459" 
d="M237 390q90 0 154 -58t64 -140q0 -81 -64 -139.5t-154 -58.5q-89 0 -152.5 58.5t-63.5 139.5q0 82 63.5 140t152.5 58zM237 377q-64 0 -108 -53t-44 -132q0 -78 44 -129.5t108 -51.5q66 0 110 51.5t44 129.5q0 79 -44 132t-110 53z" />
    <glyph glyph-name="p" unicode="p" horiz-adv-x="422" 
d="M46 -182q0 -14 -6 -15t-6 -5q0 -8 11 -7q9 2 25 12.5t27 10.5q5 0 10 -1q13 -4 13 5q0 4 -6.5 4.5t-6.5 11.5v172q0 15 7 11q39 -30 109 -23q73 7 126.5 68t53.5 135q0 66 -37 114.5t-105 67.5q-35 10 -67 10q-30 0 -72 -10q-47 -11 -75 3q-19 9 -19 -2l9 -15t9 -35v-512
zM107 80v243q0 49 74 49q61 0 96 -26q56 -43 56 -144q0 -75 -34 -130q-36 -61 -97 -62q-36 -1 -63 16q-32 19 -32 54z" />
    <glyph glyph-name="q" unicode="q" horiz-adv-x="413" 
d="M378 -190q0 -15 5.5 -16t5.5 -5q0 -7 -10 -7q-13 0 -30 -9q-22 -13 -33 -16q-13 -3 -13 5q0 5 6.5 5.5t6.5 20.5v219q0 17 -7 11q-39 -30 -108 -23q-77 8 -127 52q-54 47 -54 118q0 88 74 153.5t164 65.5q23 0 44 -5q49 -11 74 3q19 10 19 -2l-8.5 -14.5t-8.5 -34.5v-521
zM316 80v244q0 43 -59 43q-73 0 -114 -44q-53 -58 -53 -146q0 -68 33 -114q36 -51 98 -52q36 -2 63 16q32 19 32 53z" />
    <glyph glyph-name="r" unicode="r" horiz-adv-x="284" 
d="M42 21q0 -12 -6.5 -12.5t-6.5 -5.5t6 -4q30 3 38 3q7 0 37 -3q7 -1 7 4t-7 5.5t-7 11.5v261q0 3 2 1q8 -11 12 4q0 8 3 23q14 44 53 44q20 0 39 -20q8 -10 12 -10q5 0 13 10q5 10 22 26q4 3 4 5q0 4 -10 11q-22 16 -49 16q-54 0 -85 -48q-4 -7 -9 -19q-1 -5 -4 -5
q-3 1 -3 10v33q0 8 2.5 11.5t1.5 6.5q-1 4 -11 1q-16 -3 -29 0t-26 7q-12 1 -12 -6q0 -4 6.5 -5t6.5 -16v-340z" />
    <glyph glyph-name="s" unicode="s" horiz-adv-x="449" 
d="M241 9q-50 0 -96 23q-52 25 -70 67q-3 12 -24 0q-6 -3 -20 -8.5t-6 -17.5q27 -38 89 -59.5t133 -21.5q70 1 127 26q66 29 66 87q0 53 -52 82q-18 10 -82 32q-67 22 -95 36q-46 23 -49 48q-2 31 35 48q29 13 70 14q65 2 107 -52q5 -5 9 -5t10.5 10t10.5 12q7 4 0 11
q-60 44 -156 44q-25 0 -48 -3q-49 -8 -77 -35q-25 -23 -27 -53q-4 -64 89 -99q66 -24 133 -48q71 -31 71 -67q0 -40 -58 -58q-41 -14 -90 -13z" />
    <glyph glyph-name="t" unicode="t" horiz-adv-x="382" 
d="M147 21q0 -17 10 -21q26 2 58 -1q7 -1 7 4q0 4 -6.5 5.5t-6.5 11.5q0 158 -1 320q45 -17 83 -17q51 0 81 31q3 3 3 15q-1 9 5 25q4 9 -3 9q-3 0 -6 -3q-37 -43 -122 -43q-28 0 -41 6v150q0 8 3 11.5t2 6.5t-11 1q-17 -3 -30 1q-25 7 -26 7q-11 1 -11 -7q0 -4 6 -5t6 -15
v-135q-30 11 -58 11q-61 0 -78 -54q-3 -7 6 -8q14 -4 23 -11q10 -6 13 7q8 37 59 37q35 0 35 -8v-331z" />
    <glyph glyph-name="u" unicode="u" horiz-adv-x="408" 
d="M285 16q-35 -28 -87 -28q-68 0 -114 42q-62 56 -62 141q0 89 57 158q54 65 54 101q0 23 -18 55q23 19 35 19q5 0 7 -3q4 -10 4 -25q0 -60 -42 -135q-31 -56 -31 -143q0 -95 40 -151q33 -46 78 -46q37 0 75 32q11 5 11 -6q0 -7 -7 -11zM297 364v-302q0 -42 -6.5 -48
t-6.5 -12q0 -11 15 -2q32 9 62 0q13 -4 13 3q0 3 -7 7t-7 19v335q0 10 6.5 10.5t6.5 5.5t-7 4q-45 -3 -75 0q-7 1 -7 -4t6.5 -5.5t6.5 -10.5z" />
    <glyph glyph-name="v" unicode="v" horiz-adv-x="486" 
d="M223 11l-183 345q-3 7 -13 16q-5 1 -7.5 3.5t-1.5 4.5t6 2q52 -3 92 1q10 1 11 -3q2 -4 -4 -6.5t-2 -11.5l137 -290q6 -13 10 -5q88 176 138 300q6 16 13 16q21 -3 30 -1q15 3 15 -5q0 -4 -6 -8q-12 -10 -20 -23q-37 -62 -94 -169q-70 -135 -92 -173q-4 -13 -10 -11
q-8 -4 -19 18z" />
    <glyph glyph-name="w" unicode="w" horiz-adv-x="676" 
d="M448 329q-24 -11 -51 -11q-59 0 -95 46q-7 8 -28 48q-16 31 -33 42q-9 5 -22 5q-19 0 -19 -14q0 -5 -7 -3t-3 8q17 35 61 25q39 -9 70 -64q44 -77 84 -79q47 -2 50 15q-1 2 -1 4q0 7 8 7q6 0 6 -9q-1 -11 -20 -20zM218 11l-183 345q-3 7 -13 16q-5 1 -7.5 3.5t-1.5 4.5
t6 2q51 -3 91 1q10 1 12 -3t-4 -7t-2 -11l137 -290q6 -13 11 -3l89 188q13 27 21 27q4 0 3 -10q-1 -13 15 -45l76 -153l4 -8q1 -1 2 0q2 4 3 8q94 175 133 295q4 12 12 12q20 -3 29 -1q15 3 15 -5q0 -4 -6 -8q-10 -9 -19 -23q-93 -156 -182 -341q-6 -12 -11 -12t-12 13
l-94 180l-90 -174q-10 -20 -19 -20q-7 0 -15 19z" />
    <glyph glyph-name="x" unicode="x" horiz-adv-x="480" 
d="M236 183q-45 -56 -132 -172q-8 -11 -16 -11q-51 0 -61 -1q-5 0 -6 2t1.5 4.5t8 3t22.5 12.5q51 39 162 162q3 4 11 12q-29 38 -96 127q-17 17 -20 17q-8 -2 -8 4q0 9 10 10q16 3 30 16l22 20q5 4 13 4t8 -5q0 -3 -3 -7q-6 -8 2 -18q43 -55 85 -114q26 41 80 121
q10 11 19 10q16 -2 44 0q20 2 21 -2q0 -4 -7 -6q-10 -2 -12 -3q-21 -13 -58.5 -54.5t-74.5 -82.5q35 -49 152 -201q6 -8 20 -17q14 -4 14 -8q0 -6 -14 -8q-22 -6 -44 -32q-7 -8 -10 -8q-5 0 -4 13q0 7 -10 20q-65 82 -149 192z" />
    <glyph glyph-name="y" unicode="y" horiz-adv-x="508" 
d="M209 52l-188 299q-6 14 -14 18q-14 3 -14 11q0 7 8 5q36 -11 87 -5q10 1 13 -3q2 -4 -4 -6.5t0 -11.5l158 -260q5 -9 9 -9q3 0 9 9q62 93 86 132q45 75 73 139q7 19 22 17q24 0 39 1q13 0 13 -6q0 -5 -9 -9q-5 -3 -16 -11q-26 -31 -66 -88q-81 -122 -161 -244
q-100 -143 -196 -214q-116 -86 -235 -83q-18 0 -18 7q0 4 6.5 13.5t7.5 14.5q4 16 11 16q3 0 7 -1q34 -15 88 -5q142 27 266 201q26 36 26 48q0 11 -8 25z" />
    <glyph glyph-name="z" unicode="z" horiz-adv-x="407" 
d="M104 351q-22 -6 -38 -6q-20 0 -23 9q-1 4 17.5 13t23.5 14t18 2q32 -8 116 -8q102 0 155 8q23 3 23 -4q0 -2 -6 -4q-12 -4 -35 -34q-16 -22 -32 -45q-127 -160 -209 -267q-9 -11 9 -11q189 0 256 26q5 2 9 3q5 0 6 -3q0 -3 -2 -6q-6 -12 -12 -23q-9 -16 -21 -16
q-254 4 -330 1q-10 0 -10 5q0 7 14 25q155 189 256 321q7 9 -6 9q-135 2 -179 -9z" />
    <glyph glyph-name="braceleft" unicode="{" horiz-adv-x="407" 
d="M269 639v-21q-53 -1 -72.5 -22t-19.5 -99v-20.5v-21.5q0 -87 -23 -119t-85 -44q62 -12 85 -43.5t23 -118.5v-20.5v-20.5q0 -76 19.5 -97t72.5 -21v-21q-80 0 -114 24q-31 21 -37 72q-3 19 -3 120q0 62 -23 86.5t-85 29.5v21q62 5 85 29t23 88q0 103 3 121q6 52 36 74
q35 24 115 24z" />
    <glyph glyph-name="bar" unicode="|" horiz-adv-x="249" 
d="M30 709q-4 -2 -7 -2q-6 0 -6 7q0 11 12.5 21t35.5 10q48 0 79 -31q47 -45 47 -107q0 -39 -19 -94q-8 -24 -83 -179q-53 -109 -53 -187q0 -79 41.5 -136.5t101.5 -63.5q5 9 12 7t7 -9q0 -12 -22 -12q-34 0 -78 36q-98 80 -98 229q0 80 28 149l66 144q49 110 50 152
q0 36 -19.5 61t-47.5 25q-24 0 -47 -20z" />
    <glyph glyph-name="braceright" unicode="}" horiz-adv-x="407" 
d="M86 635v-21q53 -1 73 -22t20 -99v-21v-21q0 -88 23 -119.5t85 -43.5q-62 -12 -85 -43.5t-23 -118.5v-20.5v-20.5q0 -77 -19.5 -97.5t-73.5 -21.5v-20q81 0 115 23q30 22 37 72q2 20 2 121q0 62 23 86.5t86 29.5v21q-63 5 -86 29t-23 88q0 102 -2 121q-6 52 -37 73
q-34 25 -115 25z" />
    <glyph glyph-name="asciitilde" unicode="~" horiz-adv-x="309" 
d="M188 494q-23 0 -61 15t-58 15q-11 0 -21 -3q-19 -5 -19 -23q0 -6 3 -10q3 0 3 -4t-3 -5q-6 -2 -9.5 6t-3.5 15q0 32 31 47q13 6 31 6q23 0 71 -14t67 -14q42 0 47 33q-5 3 -3 10q2 6 7 5q10 0 7 -17q-7 -31 -34.5 -46.5t-54.5 -15.5z" />
    <glyph glyph-name="euro" horiz-adv-x="717" 
d="M137 340h263l-5 -20h-260q0 -7 1 -55h239l-5 -19h-231q2 -19 3 -28q11 -69 51 -126q51 -73 120 -73q56 0 100 35q38 31 57 80q3 8 9 8q8 0 8 -13q0 -4 -1 -8q-20 -54 -69 -89q-54 -37 -124 -37q-106 0 -170 91q-50 71 -57 160h-61l5 19l53 1q-2 27 0 54h-62l6 20h58
q13 95 74 165q74 84 187 84q60 0 101 -34.5t41 -79.5q0 -12 -4 -24q-5 -19 -17 -19q-1 0 -15 49q-15 53 -37 67q-36 23 -74 23q-73 0 -123.5 -69t-60.5 -162z" />
    <glyph glyph-name="euro" unicode="&#x20ac;" horiz-adv-x="717" 
d="M137 340h263l-5 -20h-260q0 -7 1 -55h239l-5 -19h-231q2 -19 3 -28q11 -69 51 -126q51 -73 120 -73q56 0 100 35q38 31 57 80q3 8 9 8q8 0 8 -13q0 -4 -1 -8q-20 -54 -69 -89q-54 -37 -124 -37q-106 0 -170 91q-50 71 -57 160h-61l5 19l53 1q-2 27 0 54h-62l6 20h58
q13 95 74 165q74 84 187 84q60 0 101 -34.5t41 -79.5q0 -12 -4 -24q-5 -19 -17 -19q-1 0 -15 49q-15 53 -37 67q-36 23 -74 23q-73 0 -123.5 -69t-60.5 -162z" />
    <glyph glyph-name="quotesinglbase" unicode="&#x201a;" horiz-adv-x="135" 
d="M13 -56q-7 0 -13 3q-3 0 -3 4q1 3 5 3q26 -3 42 18q15 18 15 42q0 29 -21 27q-14 -2 -15 -18q-1 -7 -8 0q-9 11 -9 27q0 18 11.5 26.5t23.5 8.5q20 0 31.5 -16.5t11.5 -36.5q0 -33 -20.5 -60.5t-50.5 -27.5z" />
    <glyph glyph-name="florin" unicode="&#x192;" 
 />
    <glyph glyph-name="quotedblbase" unicode="&#x201e;" horiz-adv-x="234" 
d="M14 -76q-8 0 -13 2t-4 5t5 3q26 -3 42 18q15 18 15 42q0 29 -21 26q-13 -1 -16 -16q0 -10 -7 0q-9 9 -9 26q0 18 11.5 26.5t23.5 8.5q22 0 35 -21q8 -13 8 -31q0 -34 -21 -61.5t-49 -27.5zM112 -76q-6 0 -13 3q-3 1 -3 4t4 3q26 -3 42 17t16 43q0 29 -21 26
q-13 -1 -15 -16q-2 -8 -9 0q-8 10 -8 25q0 19 13 28q10 8 22 8q21 0 34 -21q9 -13 9 -32q0 -33 -20.5 -60.5t-50.5 -27.5z" />
    <glyph glyph-name="ellipsis" unicode="&#x2026;" 
 />
    <glyph glyph-name="dagger" unicode="&#x2020;" 
 />
    <glyph glyph-name="daggerdbl" unicode="&#x2021;" 
 />
    <glyph glyph-name="circumflex" unicode="&#x2c6;" horiz-adv-x="717" 
d="M137 340h263l-5 -20h-260q0 -7 1 -55h239l-5 -19h-231q2 -19 3 -28q11 -69 51 -126q51 -73 120 -73q56 0 100 35q38 31 57 80q3 8 9 8q8 0 8 -13q0 -4 -1 -8q-20 -54 -69 -89q-54 -37 -124 -37q-106 0 -170 91q-50 71 -57 160h-61l5 19l53 1q-2 27 0 54h-62l6 20h58
q13 95 74 165q74 84 187 84q60 0 101 -34.5t41 -79.5q0 -12 -4 -24q-5 -19 -17 -19q-1 0 -15 49q-15 53 -37 67q-36 23 -74 23q-73 0 -123.5 -69t-60.5 -162z" />
    <glyph glyph-name="perthousand" unicode="&#x2030;" horiz-adv-x="885" 
d="M125 600q7 0 7 -4t-7.5 -5t-25.5 -7q-52 -30 -52 -151q0 -163 73 -163q44 0 64 68q14 46 14 104q0 141 -65 141q-14 0 -21 -10h-3q-3 0 -3 3q0 7 17 12q13 4 22 4q19 0 54 -13q46 -18 54 -20q49 -13 98 -13q76 0 148 35q32 15 63 15q22 0 22 -7q0 -3 -5 -5h-6
q-30 1 -52 -24q-18 -25 -35 -49q-56 -80 -170 -237q-15 -21 -69 -92q-90 -119 -94 -124q-70 -79 -124 -79q-17 0 -17 6q0 3 8 4q39 4 91 69q35 49 71 98q82 117 253 346q24 31 51 57q-60 -33 -146 -33q-84 0 -128 25q32 -48 32 -120q0 -64 -30 -113q-35 -59 -94 -59t-92 58
q-28 47 -28 110q0 65 30 114q35 59 95 59zM448 333q7 0 7 -5q0 -4 -7.5 -5t-23.5 -6q-54 -27 -55 -151v-3q0 -56 13 -99q20 -62 61 -62q43 0 64 67q14 46 14 102q0 144 -66 144q-9 0 -16 -5l-7 -5q-3 0 -3 4q0 7 16 12q13 4 22 4q49 0 77 -57q22 -46 22 -101q0 -66 -29 -115
q-34 -60 -95 -60q-58 0 -92 57q-28 47 -28 110q0 65 30 115q35 59 96 59zM717 333q6 0 6 -5q0 -4 -7 -5t-24 -6q-54 -27 -55 -151v-3q0 -56 13 -99q20 -62 61 -62q43 0 64 67q14 46 14 102q0 144 -66 144q-9 0 -16 -5l-7 -5q-3 0 -3 4q0 7 16 12q13 4 22 4q49 0 77 -57
q22 -46 22 -101q0 -66 -29 -115q-34 -60 -95 -60q-58 0 -92 57q-28 47 -28 110q0 65 30 115q35 59 97 59z" />
    <glyph glyph-name="Scaron" unicode="&#x160;" horiz-adv-x="540" 
d="M-280 -8zM251 -4q-145 32 -203 161q-27 61 -27 127q0 78 37 147t102 113q80 54 168 54q65 0 109 -34q8 -6 7 -11q-1 -6 -10.5 -7t-19 -11.5t-12.5 -10.5t-10 10q-26 39 -85 39q-76 0 -133 -43q-83 -62 -83 -186q0 -95 48.5 -185t121.5 -126q45 -21 94 -21q55 0 82 28
q-1 1 -1 3q0 13 13 13q3 0 5 -3q4 -4 -3 -14q-30 -48 -138 -48q-35 0 -62 5z" />
    <glyph glyph-name="guilsinglleft" unicode="&#x2039;" 
 />
    <glyph glyph-name="OE" unicode="&#x152;" horiz-adv-x="878" 
d="M835 42q-13 -15 -17 -34q3 -2 3 -4q0 -7 -7 -5h-345q-15 0 -15 7l9 3.5t9 23.5v63q-78 -102 -199 -102q-115 0 -193 96q-72 89 -72 208q0 117 73 207q77 96 192 96q121 0 199 -103v60q0 20 -9 23.5t-9 4.5q0 5 15 5h317q20 0 13 -12q-5 -8 -5 -21q0 -5 -13 -2
q-72 20 -241 18v-136q24 30 67 30q32 0 67 -18q23 -13 47 -26q14 -6 31 -6q32 0 38 25q-1 0 -4 3q-4 5 2 9q6 1 8 -6.5t2 -14.5q0 -28 -30 -44q-22 -12 -47 -12q-23 0 -43 11l-48 32q-31 21 -52 21q-23 0 -38 -24v-407q108 0 146 4q82 7 139 36q5 2 8 2q11 0 2 -11zM466 298
q0 120 -56.5 204t-136.5 84q-79 0 -135 -84t-56 -204q0 -121 56 -205t135 -84q80 0 136.5 84t56.5 205z" />
    <glyph glyph-name="Zcaron" 
 />
    <glyph glyph-name="Zcaron" unicode="&#x17d;" 
 />
    <glyph glyph-name="quoteleft" unicode="&#x2018;" horiz-adv-x="134" 
d="M20 566q19 25 49 25q7 0 14 -2q3 -1 3 -4q0 -4 -4 -4q-26 3 -41.5 -16.5t-15.5 -42.5q0 -30 20 -27q13 1 16 17q1 6 8 0q9 -11 9 -24q0 -15 -11 -26t-26 -11q-20 0 -33 21q-8 14 -8 33q0 33 20 61z" />
    <glyph glyph-name="quoteright" unicode="&#x2019;" horiz-adv-x="134" 
d="M13 451q-7 0 -12 1.5t-4 5.5q0 3 4 3q26 -3 43 18q14 18 14 41q0 29 -20 27q-13 -2 -16 -17q-1 -7 -8 0q-8 11 -8 26q0 18 11.5 27t23.5 9q20 0 31 -17t11 -37q0 -33 -19.5 -60t-50.5 -27z" />
    <glyph glyph-name="quotedblleft" unicode="&#x201c;" horiz-adv-x="227" 
d="M189 592q7 0 12 -2t4 -5q0 -4 -4 -3q-26 3 -43 -19q-15 -18 -15 -41q0 -29 21 -26q13 1 16 16q0 10 7 0q9 -9 9 -26q0 -18 -11.5 -26.5t-23.5 -8.5q-20 0 -31 18q-11 15 -11 35q0 34 20.5 61t49.5 27zM41 566q20 26 49 26q7 0 14 -2q2 -2 2 -5t-4 -3q-26 3 -41.5 -17
t-15.5 -43q0 -29 21 -26q12 1 14 16q2 8 9 0q8 -10 8 -25q0 -19 -12 -27.5t-23 -8.5q-20 0 -31 16.5t-11 36.5q0 33 21 62z" />
    <glyph glyph-name="quotedblright" unicode="&#x201d;" horiz-adv-x="234" 
d="M23 450q-7 0 -12 2t-4 5q0 4 4 3q26 -2 43 19q14 18 14 41q0 29 -21 27q-13 -2 -15 -17q0 -10 -8 0q-9 10 -9 26q0 18 12 26.5t24 8.5q19 0 30.5 -16.5t11.5 -36.5q0 -34 -20.5 -61t-49.5 -27zM122 450q-8 0 -12.5 2t-3.5 5q0 3 4 3q26 -3 41.5 17t15.5 43q0 29 -21 27
q-12 -2 -15 -17q-1 -8 -8 0q-8 10 -8 25q0 19 11.5 27.5t23.5 8.5q19 0 30.5 -16.5t11.5 -36.5q0 -33 -20.5 -60.5t-49.5 -27.5z" />
    <glyph glyph-name="bullet" unicode="&#x2022;" horiz-adv-x="184" 
d="M87 224q-31 0 -52.5 21.5t-21.5 52.5t21.5 52.5t52.5 21.5t52.5 -21.5t21.5 -52.5t-21.5 -52.5t-52.5 -21.5zM111 308v-8h16v-3h-16v-11h-3v25h19v-3h-16zM97 286v11h-18v-11h-3v25h3v-11h18v11h3v-25h-3zM52 286v25h3v-22h14v-3h-17z" />
    <glyph glyph-name="endash" unicode="&#x2013;" 
 />
    <glyph glyph-name="emdash" unicode="&#x2014;" 
 />
    <glyph glyph-name="tilde" unicode="&#x2dc;" horiz-adv-x="569" 
d="M465 298q0 120 -56.5 204t-136.5 84q-79 0 -135 -84t-56 -204q0 -121 56 -205t135 -84q80 0 136.5 84t56.5 205zM307 471q5 -1 5 -3q0 -6 -12 -6q-20 0 -30 -33q-5 -16 -5 -32q0 -35 32 -87q18 -28 18 -65q0 -36 -16.5 -65t-43.5 -35q-8 7 1 10q39 16 39 55q0 25 -16 49
q-49 72 -49 111q0 11 2 21q7 40 28.5 61t46.5 19zM539 298q0 -119 -73 -209q-78 -95 -194 -95q-115 0 -192 96q-73 89 -73 208q0 117 73 207q77 96 192 96q116 0 194 -96q73 -89 73 -207z" />
    <glyph glyph-name="trademark" unicode="&#x2122;" horiz-adv-x="223" 
d="M55 581q0 1 3 1q6 0 12 -9l2 -5q3 -5 6 -4q2 1 2 5l-4 18q-1 4 -4 4h-52q-3 0 -4 -4l-3 -18q-1 -4 1 -5q3 -1 6 4l2 5q6 9 13 9q2 0 2 -1v-96q0 -2 -4 -2t-4 -5q0 -4 5 -4h24q5 0 5 4q0 5 -4 5t-4 2v96zM136 519l-26 70q-1 2 -3 2h-20q-5 0 -5 -4t4.5 -4.5t4.5 -1.5v-96
q0 -2 -4.5 -2t-4.5 -4q0 -5 5 -5h18q5 0 5 5q0 4 -4.5 4t-4.5 2v77l25 -69q2 -4 7 -4q4 0 6 4l25 69v-77q0 -2 -4 -2t-4 -4q0 -5 5 -5h24q5 0 5 5q0 4 -4 4t-4 2v96q0 2 4 2t4 4t-5 4h-19q-2 0 -3 -2z" />
    <glyph glyph-name="scaron" unicode="&#x161;" horiz-adv-x="489" 
d="M100 569q0 11 7.5 11.5t7.5 6.5q0 5 -9 4q-41 -3 -81 0q-7 1 -7 -4q0 -6 7.5 -6.5t7.5 -10.5v-377v-5q0 -28 -5 -64q-6 -12 1 -26q25 -50 87 -78q53 -25 115 -25q58 -1 114.5 29.5t78.5 73.5q7 14 1 26q-4 7 -4 64v382q0 10 7 10.5t7 6.5q0 5 -7 4q-40 -3 -81 0
q-9 1 -9 -4q0 -6 9 -6q6 -1 6 -12v-387q-1 -80 -24 -119q-30 -53 -103 -53q-72 0 -102 53q-23 39 -24 119v387z" />
    <glyph glyph-name="guilsinglright" unicode="&#x203a;" 
 />
    <glyph glyph-name="oe" unicode="&#x153;" horiz-adv-x="843" 
d="M217 373q-65 0 -109 -53t-44 -132q0 -78 44 -129.5t109 -51.5t109 51.5t44 129.5q0 79 -44 132t-109 53zM514 221q11 0 22 -2q47 -8 145 -17q20 -1 25 17q8 26 -5 60q-14 38 -46 62t-71 24q-18 0 -35 -6q-104 -34 -104 -157q0 -30 7 -59q13 -56 49 -93q41 -42 98 -42
q16 0 32 3q71 15 100 49q-9 8 2 18q17 11 19 -3q3 -13 -28 -38q-62 -50 -145 -50q-55 0 -104 25t-75 70q-64 -92 -183 -92q-89 0 -153 58.5t-64 139.5q0 82 63.5 140t153.5 58q61 0 111.5 -27.5t78.5 -74.5q29 47 80 74t108 27q42 0 78 -16q74 -33 101 -93q9 -30 18 -59
q20 -14 -40 -24q-25 -5 -54 -5q-14 0 -166 19q-46 5 -72 -11q-11 -6 -11 -1q0 11 29 19q22 7 36 7z" />
    <glyph glyph-name="zcaron" 
 />
    <glyph glyph-name="zcaron" unicode="&#x17e;" 
 />
    <glyph glyph-name="Ydieresis" unicode="&#x178;" horiz-adv-x="511" 
d="M142 571q57 29 120 29q68 0 126 -32.5t87 -88.5q22 -43 22 -90q0 -61 -34.5 -115.5t-92.5 -86.5q-53 -29 -121 -29q-65 0 -120 26q-59 29 -88.5 78.5t-29.5 106.5q0 61 34 116t97 86zM147 65q-7 -5 -14 -3q-7 3 -7 11q-1 9 7 21q11 18 48 18q56 0 83 -41q10 -13 20 -23
q22 -24 38 -29q8 -2 16 -2q34 0 32 22q-5 1 -8 5q-6 8 2 11q7 4 12.5 -3.5t5.5 -14.5q0 -19 -26 -32q-34 -19 -81 -7q-50 13 -80 72q-13 26 -37 26q-14 0 -14 -18q3 -5 3 -13zM151 560q-79 -42 -79 -138q0 -64 37 -128q62 -111 174 -111q43 0 82 19q67 35 67 123
q0 65 -34 136q-25 52 -73 84.5t-101 32.5q-38 0 -73 -18z" />
    <glyph glyph-name="exclamdown" unicode="&#xa1;" horiz-adv-x="124" 
d="M93 17q0 -11 6 -12t6 -5q0 -7 -11 -5q-15 3 -29 5q-17 3 -33 -1q-13 -3 -13 4q0 4 6 4.5t6 8.5q1 75 11 221.5t11 218.5q0 17 12 17q11 0 11 -17q0 -71 9 -220q8 -144 8 -219zM66 603q-12 0 -21 -13t-9 -30q0 -18 9 -30.5t21 -12.5t21 12.5t9 30.5q0 17 -9 30t-21 13z
" />
    <glyph glyph-name="cent" unicode="&#xa2;" horiz-adv-x="308" 
d="M17 310q-19 38 -19 80q0 64 40 118t104 77v22q0 11 -4.5 11.5t-2.5 5.5t7 4q9 -3 19 -5q10 -3 21 1q6 2 8 -2q2 -5 -3 -5.5t-5 -9.5v-13q54 5 88 -22q12 -9 -2 -11q-8 -1 -13 -8q-8 -10 -14 0q-6 12 -25 21t-34 9q-6 -119 -14 -358q24 -9 49 -9q35 0 53 19q-3 4 2.5 8
t8.5 1q2 -3 -2 -10q-20 -31 -88 -31q-12 0 -23 1v-29q0 -17 -8 -17q-7 0 -7 17v11.5v19.5q-29 8 -53 22q-59 32 -83 82zM142 576q-98 -39 -98 -150q0 -46 20 -90q34 -74 89 -104q-5 115 -11 344z" />
    <glyph glyph-name="sterling" unicode="&#xa3;" horiz-adv-x="688" 
d="M473 58q-9 -16 -41 -32q-38 -21 -79 -21q-62 0 -131 45q-19 13 -58 39q-37 -30 -89 -30q-24 0 -42 9q-21 11 -21 31q0 23 24 34q20 9 48 9q44 0 77 -20q25 38 25 85q0 33 -13 60q-25 -17 -75 -47q-3 -1 -5 -1q-6 0 -12 19q0 4 5 7q43 21 77 40q-44 97 -44 146
q0 73 49.5 119.5t122.5 46.5q58 0 95.5 -33.5t37.5 -81.5q0 -40 -26.5 -67.5t-66.5 -27.5q-28 0 -48 16t-20 43q0 35 31 47q21 8 21 -1v-1q0 -2 -5 -8.5t-5 -14.5q0 -13 11 -22.5t27 -9.5q20 0 34.5 19t14.5 41q0 38 -36 61q-30 19 -70 19q-61 0 -98 -39q-31 -33 -31 -76
q0 -30 15.5 -71t40.5 -78q37 20 62 37q3 2 5 2q3 0 13 -15q3 -5 -3 -9q-23 -11 -68 -34q12 -30 12 -61q0 -68 -50 -123q98 -66 157 -66q19 0 37 5q35 11 45 47q3 9 7 9q5 0 17 -15.5t16 -18.5q12 -8 10 -12zM141 102q-22 21 -64 21t-42 -23q0 -14 15 -19q12 -4 26 -4
q38 0 65 25z" />
    <glyph glyph-name="currency" unicode="&#xa4;" horiz-adv-x="652" 
d="M302 576l104 -257q10 6 29 18q51 34 109 34q62 0 95 -44q13 -18 13 -40q0 -43 -44 -51q-14 -2 -28.5 5.5t-14.5 19.5q0 6 4 12t10 6q8 0 8 -9q0 -4 -4 -9q6 -11 19 -11q15 0 29 14q9 11 9 25q0 35 -42 56q-27 13 -56 13q-50 0 -129 -57l109 -272q3 -9 15 -19q11 -1 11 -7
q0 -4 -7 -3q-25 2 -49 2h5q-25 0 -53 -2q-11 -1 -11 6q0 3 7 3.5t3 11.5l-95 234q-105 -69 -178 -69q-16 0 -30 3q-47 -121 -63 -182q-2 -7 -12 -7h-51q-13 0 -13 4q0 6 11 7q19 3 57 90l42 96q-64 24 -64 82q0 53 44 62q6 2 13 2q36 0 36 -33q0 -23 -22 -23q7 -5 8 -14
q2 -10 -3.5 -13t-10.5 -1q-6 3 -5 9q-4 -6 -4 -11q0 -15 25 -22q98 224 150 356q6 14 10 14q2 0 14 -29zM155 229q11 -1 23 -1q63 0 160 51l-78 192q-4 11 -8 0q-32 -80 -97 -242zM107 292q-2 2 -2 4q0 9 10 9q4 0 8 -3q3 5 3 9q0 18 -26 16q-25 -2 -25 -29q0 -9 5 -17
q8 15 27 11z" />
    <glyph glyph-name="yen" unicode="&#xa5;" horiz-adv-x="610" 
d="M142 169h61v28h-61q-10 0 -10 10v3q0 10 10 10h61v96q0 6 -2 11l-172 237q-6 7 -19 16q-9 2 -10 6q0 6 6 5q50 -4 98 0q14 2 14 -5q0 -6 -10 -6l153 -231q5 -7 10 -1q95 122 192 325q2 4 -2.5 5t-4.5 5q0 5 8 5q21 -2 44 -2q22 0 44 2q7 0 7 -5q0 -7 -5.5 -7.5
t-13.5 -4.5q-42 -29 -120 -139q-31 -42 -132 -193q-16 -25 -16 -35v-84h62q10 0 10 -10v-3q0 -10 -10 -10h-62v-28h62q10 0 10 -10v-3q0 -10 -10 -10h-62v-135q1 -1 7 -1.5t6 -5.5q0 -4 -3 -4h-7q-11 0 -22.5 1t-13.5 1h-3q-1 0 -13 -1t-23 -1h-7q-3 0 -3 4q0 5 6 5.5t7 1.5
v135h-61q-10 0 -10 10v3q0 10 10 10z" />
    <glyph glyph-name="brokenbar" unicode="&#xa6;" horiz-adv-x="355" 
d="M18 574q0 15 -6 16t-6 5q0 9 11 7q15 -4 29 -7q16 -4 33 1q13 4 13 -4q0 -5 -6 -6t-6 -11v-380q66 59 169 215q2 4 -1.5 5t-2.5 4q0 6 7 4q19 -1 39 -1t40 1q4 -1 6 -5q0 -4 -9 -6t-10 -3q-43 -27 -139 -133l80 -152q60 -103 112 -149q72 -65 157 -65q68 0 107 43
q-1 3 -1 5q0 10 9 10t9 -10q0 -37 -84 -58q-28 -7 -58 -7q-87 0 -171 59q-72 50 -114 121q-28 48 -88 155l-57 -67v-130q0 -21 6 -21.5t5 -5.5q0 -5 -8 -4q-25 2 -51 1q-11 0 -13 5q-1 2 -1 16v552z" />
    <glyph glyph-name="section" unicode="&#xa7;" horiz-adv-x="458" 
d="M222 386q90 0 154 -58t64 -140q0 -81 -64 -139.5t-154 -58.5q-89 0 -152.5 58.5t-63.5 139.5q0 82 63.5 140t152.5 58zM222 373q-64 0 -108 -53t-44 -132q0 -78 44 -129.5t108 -51.5q66 0 110 51.5t44 129.5q0 79 -44.5 132t-109.5 53zM261 154q0 23 -23 52.5t-23 49.5
q0 16 8.5 30t23.5 14q11 0 11 3q-1 2 -8 2q-27 0 -46.5 -20t-19.5 -47q0 -26 29.5 -58.5t29.5 -48.5q0 -26 -40 -38q-5 -2 -4 -5q2 -3 6 -3q24 3 40 24t16 45z" />
    <glyph glyph-name="dieresis" unicode="&#xa8;" horiz-adv-x="261" 
d="M0 688q0 15 10 25t25 10q14 0 24.5 -10t10.5 -25q0 -14 -10.5 -24.5t-24.5 -10.5q-15 0 -25 10.5t-10 24.5zM140 688q0 15 10.5 25t24.5 10q15 0 25 -10t10 -25q0 -14 -10 -24.5t-25 -10.5q-14 0 -24.5 10.5t-10.5 24.5z" />
    <glyph glyph-name="copyright" unicode="&#xa9;" horiz-adv-x="623" 
d="M301 604q127 0 216.5 -90t89.5 -217t-89.5 -216.5t-216.5 -89.5t-217 89.5t-90 216.5t90 217t217 90zM301 565q-111 0 -189.5 -78.5t-78.5 -189.5t78.5 -189.5t189.5 -78.5t189.5 78.5t78.5 189.5t-78.5 189.5t-189.5 78.5zM131 421q27 36 78 59.5t107 23.5q63 0 116 -31
q8 -6 1 -20q-13 -23 -42 -32q-6 -2 -10 -1t-3 5q2 6 2 12q0 47 -77 47q-22 0 -38 -5q-109 -36 -109 -169q0 -31 7 -63q14 -58 62.5 -100t109.5 -42q78 0 123 53q-10 9 2 19q6 4 12 4q8 0 9 -7q2 -14 -31 -40q-66 -54 -153 -54q-90 0 -152 56t-62 145q0 77 48 140z" />
    <glyph glyph-name="ordfeminine" unicode="&#xaa;" horiz-adv-x="442" 
d="M95 173q4 -3 0 -6t-8 3q-9 12 -9 26q0 28 27 42q20 10 39 10q24 0 61 -21q42 -23 62 -26q8 -1 15 -1q35 0 35 20q0 4 -3 7.5t-3 6.5q0 5 8 5q6 0 8 -7q6 -23 -15 -44q-26 -26 -63 -26q-31 0 -54 19q-43 34 -75 34q-20 0 -27 -12q-8 -12 2 -30zM219 7q-57 3 -98 46
q-49 52 -53 140q-4 83 48 135q45 45 106 45q48 0 73 -31q8 -10 17 0l16 18q2 2 2 4q0 -1 -14 7q-37 16 -81 16q-105 0 -174 -74q-57 -59 -57 -135q0 -109 104 -162q47 -25 109 -25q64 0 124 26t94 70q5 7 1 11q-6 5 -18 13q-16 12 -18 0q-9 -46 -71 -77q-56 -29 -110 -27z
" />
    <glyph glyph-name="guillemotleft" unicode="&#xab;" horiz-adv-x="399" 
d="M11 419q-2 2 -4 2q-7 0 -7 -16q0 -22 11 -29l162 -112l-162 -112q-11 -7 -11 -29q0 -16 7 -16q2 0 4 1l197 138q9 6 9 18t-9 18zM157 419q-2 2 -3 2q-7 0 -7 -16q0 -22 10 -29l163 -112l-163 -112q-10 -7 -10 -29q0 -16 7 -16q2 0 3 1l198 138q9 6 9 18t-9 18z" />
    <glyph glyph-name="logicalnot" unicode="&#xac;" horiz-adv-x="281" 
d="M6 4q0 -4 7 -4q6 0 18.5 1.5t18.5 1.5q7 0 19 -1.5t18 -1.5q7 0 7 4q0 5 -6.5 6.5t-6.5 10.5v206q7 -4 9 6q7 31 14 48q28 66 93 113.5t134 47.5q34 0 64 -12q12 -5 14 -5q4 0 11 9q4 5 19 15t15 12q0 8 -39 15q-30 4 -47 4q-91 0 -170.5 -57.5t-111.5 -143.5
q-2 -5 -5 -6q0 -1 0 93q0 5 2 9t2 5q0 4 -5 4q-4 0 -11 -1.5t-11 -1.5q-7 0 -21 4.5t-21 4.5q-9 0 -9 -6q0 -3 6.5 -5t6.5 -12l-1 -345q0 -10 -6.5 -11.5t-6.5 -6.5z" />
    <glyph glyph-name="minus" unicode="&#xad;" 
 />
    <glyph glyph-name="registered" unicode="&#xae;" horiz-adv-x="263" 
d="M258 517q0 -52 -36.5 -88.5t-88.5 -36.5q-51 0 -87.5 36.5t-36.5 88.5q0 51 36.5 87.5t87.5 36.5q52 0 88.5 -36.5t36.5 -87.5zM241 517q0 44 -31.5 75.5t-76.5 31.5q-44 0 -76 -31.5t-32 -75.5q0 -45 32 -76.5t76 -31.5q45 0 76.5 31.5t31.5 76.5zM206 442h-26
q-16 27 -44 63q-8 5 -19 5h-25v-68h-21v153h70q52 0 52 -42q0 -36 -43 -41q16 -8 33 -32q11 -19 23 -38zM173 553q0 25 -31 25h-50v-51h45q36 0 36 26z" />
    <glyph glyph-name="macron" unicode="&#xaf;" horiz-adv-x="387" 
d="M57 314q27 37 77 58q46 20 95 20q89 0 105 -58q7 -24 -8 -44.5t-37 -20.5q-30 0 -30 27q0 23 25 23q22 0 19 -21q7 -3 9 9q2 11 -1 22q-10 44 -88 44q-24 0 -41 -5q-103 -34 -103 -158q0 -30 7 -59q14 -56 49 -93q40 -43 96 -43q16 0 33 4q70 15 100 48q-9 9 1 18
q17 15 20 -3q2 -12 -28 -37q-62 -51 -144 -51q-85 0 -142 52q-60 53 -60 136q0 73 46 132z" />
    <glyph glyph-name="degree" unicode="&#xb0;" horiz-adv-x="161" 
d="M80 669q31 0 52.5 -22t21.5 -53t-21.5 -52.5t-52.5 -21.5t-53 21.5t-22 52.5t22 53t53 22zM80 639q-19 0 -32 -13t-13 -32q0 -18 13 -31t32 -13q18 0 31 13t13 31q0 19 -13 32t-31 13z" />
    <glyph glyph-name="plusminus" unicode="&#xb1;" horiz-adv-x="493" 
d="M402 331q-26 -26 -78 -26q-45 0 -78 27q-24 18 -59 18q-32 0 -56 -16.5t-26 -44.5q3 -2 2 -6q0 -4 -4 -5q-4 2 -8 7q2 43 43 73q38 29 84 29q22 0 40 -7q26 -15 68 -39q18 -9 35 -9q34 0 34 17q0 4 -6 6.5t-6 6.5q0 5 7 5q4 0 9 -2q8 -5 8 -16q-1 -10 -9 -18zM444 97
q-25 -40 -52 -58q-46 -31 -125 -27q-67 3 -123 77q-58 78 -58 175q0 18 2 35q34 267 209 267q38 0 81 -14q6 -2 12 -5q6 -1 10 7q5 12 19 26q8 8 -7 11q-27 5 -57 5q-117 0 -209 -66q-110 -80 -131 -224q-2 -18 -2 -37q0 -69 34.5 -131t95.5 -100q70 -43 157 -43
q120 0 187 88q7 10 2 16q-8 7 -23 19q-14 13 -15 0q0 -11 -7 -21z" />
    <glyph glyph-name="twosuperior" unicode="&#xb2;" horiz-adv-x="390" 
d="M74 371q24 24 67 24q56 0 95 -31q35 -28 67 -92q8 -16 61 -166q42 -120 84 -171q74 -87 171 -87q52 0 88 30q-4 14 9 14q9 0 9 -8q0 -21 -37 -36q-27 -10 -54 -13q-14 -2 -28 -2q-167 0 -288 220q-8 14 -56 149q-39 112 -71 143q-23 22 -59 22q-26 0 -45 -12t-19 -30
v-304q0 -10 6.5 -10.5t7.5 -5.5q0 -5 -7 -5q-30 2 -38 2q-7 0 -37 -2q-7 0 -7 5q1 5 7 5.5t6 11.5v341q0 15 -6 16t-6 5q0 7 12 6q12 -3 25.5 -6.5t29.5 -0.5q10 2 11 -1t-1.5 -6.5t-3.5 -5.5q1 -1 2 -3q2 0 5 4z" />
    <glyph glyph-name="threesuperior" unicode="&#xb3;" horiz-adv-x="560" 
d="M427 0q-52 20 -96 89q-2 -27 -39 -56q-44 -34 -106 -41q-12 -1 -25 -1q-69 0 -115 36.5t-46 91.5q0 28 13 56q31 68 114 93q48 14 98 10q-16 31 -50 59q-40 32 -74 32q-21 0 -38 -14t-24 -9q-2 1 -2 4q0 7 9 15q20 16 61 16q64 0 102 -23q98 -62 141 -160q37 -85 47 -102
q53 -93 103 -93q22 0 43 18q-4 15 9 15q9 0 9 -9q0 -3 -2 -7q-12 -30 -71 -30q-34 0 -61 10zM56 134q0 -44 28 -80q33 -45 99 -45q45 0 80 25q55 42 47 90q-21 42 -67 125q-28 14 -58 14q-51 0 -90 -39t-39 -90z" />
    <glyph glyph-name="acute" unicode="&#xb4;" horiz-adv-x="233" 
d="M150 601q-54 -73 -109 -138q-8 -9 -4 -14q4 -4 15 4q37 30 139 109q6 5 -6.5 14.5t-21 20.5t-13.5 4z" />
    <glyph glyph-name="mu" unicode="&#xb5;" horiz-adv-x="688" 
d="M18 364l155 -341q10 -22 15 -22t19 23q83 168 121 252q5 13 11 0l116 -251q10 -23 17 -23q3 0 14 22q51 103 93.5 185t79.5 149q8 13 19 23q6 5 6 7q0 8 -13 5.5t-35 1.5q-6 0 -12 -16q-48 -127 -127 -298q-4 -7 -10 6l-117 283q-8 21 -14 21t-13 -22q-58 -147 -124 -282
q-6 -11 -10 0l-114 283q-3 9 2.5 11.5t3.5 5.5q-2 5 -10 3q-40 -5 -89 0q-1 -1 -1.5 -2t-1.5 -2q1 -2 9.5 -11t9.5 -11z" />
    <glyph glyph-name="paragraph" unicode="&#xb6;" horiz-adv-x="406" 
d="M86 568q0 15 6.5 16t6.5 5q0 9 -12 7q-29 -5 -61 5q-14 3 -14 -5q0 -5 6.5 -5.5t6.5 -14.5v-546q0 -21 -6 -21.5t-6 -5.5q1 -5 8 -5q11 2 52 0q10 0 12 5q1 2 1 16v295q13 -1 16 9q11 35 45 33q56 -3 94 -76q18 -35 53 -147q29 -94 54 -121q38 -42 84 -42q33 0 33 13
q0 6 -9 6q-10 -1 -12 -11q-57 -3 -91 144q-14 66 -29 132q-23 76 -72 104q-35 21 -77 21q-52 0 -84 -34q-5 -5 -5 3v220z" />
    <glyph glyph-name="periodcentered" unicode="&#xb7;" 
 />
    <glyph glyph-name="cedilla" unicode="&#xb8;" horiz-adv-x="203" 
d="M152 -63q0 -49 -62 -49q-22 0 -52 9q-38 11 -38 27q0 7 8 7q5 0 30 -10t43 -10q32 0 32 26q0 25 -30 25q-6 0 -19 -2l1 39l1 1h16v-18q4 1 17 1q53 0 53 -46z" />
    <glyph glyph-name="onesuperior" unicode="&#xb9;" horiz-adv-x="416" 
d="M305 16q-35 -23 -92 -23q-101 0 -159 83q-52 73 -52 178q0 58 16 114q5 17 27 16h50q23 -1 23 -8q0 -5 -12.5 -9.5t-23.5 -51.5q-8 -33 -8 -75q0 -91 33 -155q40 -78 115 -78q55 0 72 29q2 14 2 29q0 296 0 280q0 17 -1 25q-2 7 4 9h12q12 -1 36 -1q11 1 14.5 -1.5
t1.5 -12.5q-2 -9 -2 -28v-284q0 -18 4 -22q6 -8 6 -12q0 -7 -16 -3q-37 8 -50 1z" />
    <glyph glyph-name="ordmasculine" unicode="&#xba;" horiz-adv-x="161" 
d="M55 641q23 0 39 -16t16 -39q0 -22 -16 -38.5t-39 -16.5t-39 16.5t-16 38.5q0 23 16 39t39 16zM55 619q-33 0 -33 -33t33 -33t33 33t-33 33z" />
    <glyph glyph-name="guillemotright" unicode="&#xbb;" horiz-adv-x="399" 
d="M27 419q-2 2 -4 2q-7 0 -7 -16q0 -22 11 -29l162 -112l-162 -112q-11 -7 -11 -29q0 -16 7 -16q2 0 4 1l197 138q9 6 9 18t-9 18zM173 419q-2 2 -3 2q-7 0 -7 -16q0 -22 10 -29l163 -112l-163 -112q-10 -7 -10 -29q0 -16 7 -16q2 0 3 1l198 138q9 6 9 18t-9 18z" />
    <glyph glyph-name="onequarter" unicode="&#xbc;" horiz-adv-x="622" 
d="M438 375q47 -29 80 -102q29 -81 58 -163q44 -122 88 -174q74 -88 171 -88q52 0 88 30q-4 14 9 14q9 0 9 -9q0 -20 -37 -35q-27 -10 -54 -13q-12 -1 -25 -1q-97 0 -183 73q-73 62 -109 147q-28 75 -55 149q-44 113 -73 143q-22 23 -57 23q-27 0 -45 -15q-21 -16 -21 -42
l1 -290q0 -11 6 -11.5t7 -5.5q-4 -2 -7 -5q-37 4 -75 0q-3 3 -6 5q0 5 6.5 5.5t6.5 11.5v292q0 34 -27 54q-22 15 -48 14q-34 0 -55 -24q-10 -12 -10 -44v-292q0 -11 6 -11.5t7 -5.5q-4 -2 -7 -5q-37 4 -74 0q-4 3 -7 5q0 5 6.5 5.5t6.5 11.5v343q0 15 -6 15.5t-6 4.5
q0 8 11 7q13 -4 26 -7q13 -4 29 0q10 2 12 -2q1 -2 -2 -5.5t-3 -5.5q0 -1 1 -2q2 0 5 3q31 25 68 25q80 0 112 -51q5 -9 10 0q32 50 90 50q37 0 72 -22z" />
    <glyph glyph-name="onehalf" unicode="&#xbd;" horiz-adv-x="388" 
d="M112 367q43 20 90 20q50 0 91.5 -22.5t59.5 -60.5q12 -26 12 -54q0 -44 -28 -85t-75 -63q-39 -20 -89 -20q-110 0 -152 74q-17 29 -17 63q0 44 28.5 84.5t79.5 63.5zM103 39q-5 -4 -9 -3q-6 2 -6 9q0 6 5 15q8 13 35 13q42 0 62 -30q12 -16 43 -38q13 -4 25 0q11 5 10 14
q-3 1 -5 4q-5 6 1 8q5 3 9 -2.5t4 -11.5q0 -13 -19 -23q-25 -14 -60 -5q-37 10 -59 53q-10 20 -27 20q-11 0 -11 -14q3 -4 2 -9zM119 357q-67 -31 -67 -104q0 -38 21 -76q41 -76 122 -76q31 0 61 13q58 27 58 97q0 40 -18 80q-16 36 -49 57t-72 21q-29 0 -56 -12z" />
    <glyph glyph-name="threequarters" unicode="&#xbe;" horiz-adv-x="504" 
d="M378 588q0 4 8 3q39 -3 81 0l8 -4q0 -5 -7 -6t-7 -11v-549q0 -10 7 -10.5t7 -5.5t-8 -5q-33 4 -81 0q-8 0 -8 5t7.5 5.5t7.5 11.5v520q-1 2 -3 0l-156 -321q-2 -12 3 -16q17 -18 17 -31q0 -8 -6.5 -14t-15.5 -19q0 -5 6 -13.5t6 -13.5q0 -8 -10 -15q-13 -10 -13 1
q0 5 6 7q10 4 7 9q-11 16 -11 24q0 5 2 9q14 25 14 24q0 4 -16.5 21.5t-3.5 44.5l-152 295q-4 2 -7 -1q0 -52 15 -512q0 -5 8 -11q7 0 7 -5t-7 -5q-27 3 -63 0q-8 0 -8 5t7 5.5t7 11.5q1 44 9 257q5 163 5 264q0 33 -32 36q-4 1 -6 4t-1 6q2 3 7 2q58 -4 127 0q8 1 10 -3
q2 -7 -3.5 -7t-7.5 -5q-3 -6 0 -11l117 -247q65 119 134 246q2 6 2 10t-4.5 6.5t-4.5 7.5z" />
    <glyph glyph-name="questiondown" unicode="&#xbf;" horiz-adv-x="430" 
d="M206 512q-12 0 -21 13.5t-9 31.5q0 17 9 30t21 13q30 0 30 -43q0 -19 -8.5 -32t-21.5 -13zM217 476q0 20 -9 20q-6 0 -8 -15q-12 -108 -78 -149q-118 -72 -122 -160q-3 -70 50 -120.5t123 -53.5q77 -2 138 41q68 48 68 122q0 46 -26 77q-29 33 -77 32q-18 0 -34.5 -17
t-16.5 -36q0 -10 4 -18q16 14 37 14q24 0 43 -18.5t19 -48.5q0 -56 -46 -94.5t-103 -36.5q-56 2 -89 48q-30 42 -30 101q0 85 84 146q73 53 73 166z" />
    <glyph glyph-name="Agrave" unicode="&#xc0;" horiz-adv-x="592" 
d="M556 3q0 -3 -7 -3q-8 0 -22.5 1t-21.5 1q-9 0 -27 -1t-27 -1q-11 0 -11 6q0 3 6 4t6 3q0 5 -59 149q-5 -21 -21 -21q-12 0 -12 12q0 9 9 9q4 0 8 -3q5 10 5 20q0 32 -39 57q-29 19 -84 17q-65 -1 -86 5q-41 -103 -65 -174q-8 -28 -24 -77q-3 -7 -30 -7q-46 0 -46 4t10 7
q21 6 58 90l74 168q-39 23 -39 58q0 53 34 53q15 0 15 -12q0 -11 -8 -11q-4 0 -8 4q-21 -2 -21 -23q0 -33 38 -42q24 55 124 296q6 14 10 14q3 0 14 -29l220 -548q6 -16 16.5 -19t10.5 -7zM349 271q-27 66 -81 200q-5 12 -10 0q-22 -59 -70 -176q60 3 83 1q48 -4 78 -25z
M182 792q53 -73 109 -137q8 -10 4 -14q-5 -5 -15 3q-37 30 -139 110q-6 5 6.5 14t22.5 22q7 9 12 2z" />
    <glyph glyph-name="Aacute" unicode="&#xc1;" horiz-adv-x="592" 
d="M556 3q0 -3 -7 -3q-8 0 -22.5 1t-21.5 1q-9 0 -27 -1t-27 -1q-11 0 -11 6q0 3 6 4t6 3q0 5 -59 149q-5 -21 -21 -21q-12 0 -12 12q0 9 9 9q4 0 8 -3q5 10 5 20q0 32 -39 57q-29 19 -84 17q-65 -1 -86 5q-41 -103 -65 -174q-8 -28 -24 -77q-3 -7 -30 -7q-46 0 -46 4t10 7
q21 6 58 90l74 168q-39 23 -39 58q0 53 34 53q15 0 15 -12q0 -11 -8 -11q-4 0 -8 4q-21 -2 -21 -23q0 -33 38 -42q24 55 124 296q6 14 10 14q3 0 14 -29l220 -548q6 -16 16.5 -19t10.5 -7zM349 271q-27 66 -81 200q-5 12 -10 0q-22 -59 -70 -176q60 3 83 1q48 -4 78 -25z
M405 792q-53 -73 -108 -137q-9 -10 -4 -14q4 -5 14 3q37 31 139 110q7 5 -5.5 14t-23.5 22q-6 9 -12 2z" />
    <glyph glyph-name="Acircumflex" unicode="&#xc2;" horiz-adv-x="592" 
d="M556 3q0 -3 -7 -3q-8 0 -22.5 1t-21.5 1q-9 0 -27 -1t-27 -1q-11 0 -11 6q0 3 6 4t6 3q0 5 -59 149q-5 -21 -21 -21q-12 0 -12 12q0 9 9 9q4 0 8 -3q5 10 5 20q0 32 -39 57q-29 19 -84 17q-65 -1 -86 5q-41 -103 -65 -174q-8 -28 -24 -77q-3 -7 -30 -7q-46 0 -46 4t10 7
q21 6 58 90l74 168q-39 23 -39 58q0 53 34 53q15 0 15 -12q0 -11 -8 -11q-4 0 -8 4q-21 -2 -21 -23q0 -33 38 -42q24 55 124 296q6 14 10 14q3 0 14 -29l220 -548q6 -16 16.5 -19t10.5 -7zM349 271q-27 66 -81 200q-5 12 -10 0q-22 -59 -70 -176q60 3 83 1q48 -4 78 -25z
M402 608q-11 -6 -22 3l-93 67l-94 -67q-11 -8 -21 -3q-5 2 -1 7l96 102q7 9 20 9t20 -9l96 -102q4 -5 -1 -7z" />
    <glyph glyph-name="Atilde" unicode="&#xc3;" horiz-adv-x="592" 
d="M556 3q0 -3 -7 -3q-8 0 -22.5 1t-21.5 1q-9 0 -27 -1t-27 -1q-11 0 -11 6q0 3 6 4t6 3q0 5 -59 149q-5 -21 -21 -21q-12 0 -12 12q0 9 9 9q4 0 8 -3q5 10 5 20q0 32 -39 57q-29 19 -84 17q-65 -1 -86 5q-41 -103 -65 -174q-8 -28 -24 -77q-3 -7 -30 -7q-46 0 -46 4t10 7
q21 6 58 90l74 168q-39 23 -39 58q0 53 34 53q15 0 15 -12q0 -11 -8 -11q-4 0 -8 4q-21 -2 -21 -23q0 -33 38 -42q24 55 124 296q6 14 10 14q3 0 14 -29l220 -548q6 -16 16.5 -19t10.5 -7zM349 271q-27 66 -81 200q-5 12 -10 0q-22 -59 -70 -176q60 3 83 1q48 -4 78 -25z
M384 650q-29 -15 -56 -15q-22 0 -60.5 14.5t-58.5 14.5q-10 0 -20 -3q-20 -4 -20 -23q0 -6 4 -10q3 0 3 -4t-4 -5q-6 -2 -9 6t-3 16q0 31 30 46q13 7 31 7q23 0 71.5 -14t67.5 -14q42 0 47 32q-6 4 -4 10q2 7 7 6q10 0 8 -18q-8 -31 -34 -46z" />
    <glyph glyph-name="Adieresis" unicode="&#xc4;" horiz-adv-x="592" 
d="M556 3q0 -3 -7 -3q-8 0 -22.5 1t-21.5 1q-9 0 -27 -1t-27 -1q-11 0 -11 6q0 3 6 4t6 3q0 5 -59 149q-5 -21 -21 -21q-12 0 -12 12q0 9 9 9q4 0 8 -3q5 10 5 20q0 32 -39 57q-29 19 -84 17q-65 -1 -86 5q-41 -103 -65 -174q-8 -28 -24 -77q-3 -7 -30 -7q-46 0 -46 4t10 7
q21 6 58 90l74 168q-39 23 -39 58q0 53 34 53q15 0 15 -12q0 -11 -8 -11q-4 0 -8 4q-21 -2 -21 -23q0 -33 38 -42q24 55 124 296q6 14 10 14q3 0 14 -29l220 -548q6 -16 16.5 -19t10.5 -7zM349 271q-27 66 -81 200q-5 12 -10 0q-22 -59 -70 -176q60 3 83 1q48 -4 78 -25z
M193 688q0 15 10.5 25t24.5 10q15 0 25 -10t10 -25q0 -14 -10 -24.5t-25 -10.5q-14 0 -24.5 10.5t-10.5 24.5zM308 688q0 15 10.5 25t24.5 10q15 0 25 -10t10 -25q0 -14 -10 -24.5t-25 -10.5q-14 0 -24.5 10.5t-10.5 24.5z" />
    <glyph glyph-name="Aring" unicode="&#xc5;" horiz-adv-x="592" 
d="M556 3q0 -3 -7 -3q-8 0 -22.5 1t-21.5 1q-9 0 -27 -1t-27 -1q-11 0 -11 6q0 3 6 4t6 3q0 5 -59 149q-5 -21 -21 -21q-12 0 -12 12q0 9 9 9q4 0 8 -3q5 10 5 20q0 32 -39 57q-29 19 -84 17q-65 -1 -86 5q-41 -103 -65 -174q-8 -28 -24 -77q-3 -7 -30 -7q-46 0 -46 4t10 7
q21 6 58 90l74 168q-39 23 -39 58q0 53 34 53q15 0 15 -12q0 -11 -8 -11q-4 0 -8 4q-21 -2 -21 -23q0 -33 38 -42q24 55 124 296q6 14 10 14q3 0 14 -29l220 -548q6 -16 16.5 -19t10.5 -7zM349 271q-27 66 -81 200q-5 12 -10 0q-22 -59 -70 -176q60 3 83 1q48 -4 78 -25z
M292 761q22 0 38.5 -16t16.5 -39q0 -22 -16.5 -38.5t-38.5 -16.5q-23 0 -39 16.5t-16 38.5q0 23 16 39t39 16zM292 739q-33 0 -33 -33t33 -33t33 33t-33 33z" />
    <glyph glyph-name="AE" unicode="&#xc6;" horiz-adv-x="867" 
d="M543 0h-3h3zM445 0h-2q-11 -1 -11 6q0 4 7 4t3 10q-19 48 -57 142q-5 -18 -18 -20q-15 -3 -15 11q0 9 8 9q4 0 9 -3q5 10 5 20q0 32 -39 57q-28 18 -75 18q-8 0 -24.5 -1t-24.5 -1q-27 0 -46 6q-67 -169 -89 -251q-2 -7 -12 -7h-51q-13 0 -13 4q0 6 10 7q20 2 58 90
l74 168q-39 23 -39 58q0 16 9 37q8 18 25 16q15 0 15 -12q0 -11 -8 -11q-4 0 -8 4q-21 -2 -21 -23q0 -33 38 -42q68 154 124 296q6 14 10 14q2 0 14 -29l152 -378v359q0 20 -9 23.5t-9 4.5q0 5 15 5h317q20 0 13 -12q-5 -8 -5 -21q0 -5 -13 -2q-72 20 -241 18v-136
q24 30 67 30q32 0 67 -18q23 -13 47 -26q14 -6 31 -6q32 0 38 25q-1 0 -4 3q-4 5 2 9q6 1 8 -6.5t2 -14.5q0 -28 -29 -44q-23 -12 -48 -12q-23 0 -43 11q-24 16 -47 32q-32 21 -52 21q-23 0 -39 -24v-389q6 -15 13 -18q98 0 139 4q78 8 134 36q4 2 7 2q11 0 2 -11
q-13 -15 -17 -34q3 -2 3 -4q0 -5 -7 -4h-252h-3h-95zM341 271q-27 66 -81 200q-5 12 -10 0q-23 -57 -70 -176q120 6 161 -24z" />
    <glyph glyph-name="Ccedilla" unicode="&#xc7;" horiz-adv-x="484" 
d="M230 -4q-142 30 -202 166q-28 62 -28 127q0 76 37 143.5t102 111.5q80 54 168 54q64 0 109 -34q7 -6 7 -11q-1 -6 -10.5 -7t-19 -11.5t-12.5 -10.5q-4 0 -10 10q-20 36 -81 44q-8 1 -16 1q-58 0 -121 -49q-86 -66 -86 -180q0 -73 36 -152q57 -126 137 -165q44 -21 94 -21
q55 0 82 28q-1 1 -1 3q0 13 13 13q3 0 5 -3q3 -4 -3 -14q-30 -48 -138 -48q-20 0 -38 2v-21q5 1 20 1q64 0 64 -56q0 -59 -75 -59q-26 0 -62 10q-46 14 -46 33q0 8 9 8q7 0 36.5 -11.5t51.5 -11.5q38 0 38 31q0 30 -36 30q-7 0 -22 -2v51h-2zM282 466q20 0 20 -13
q0 -5 -4 -9t-9 -1q-5 2 -5 7q-11 11 -25 -6q-6 -7 -6 -19q0 -23 15 -34q74 -55 74 -101q0 -24 -15 -50q-21 -34 -48 -34q-5 0 -9 3q-7 5 -4 11q2 5 8 5q7 0 9 -9q32 10 32 47q0 6 -1 13q-4 24 -19 38q-5 5 -29 19q-37 23 -37 68q0 22 16 43.5t37 21.5z" />
    <glyph glyph-name="Egrave" unicode="&#xc8;" horiz-adv-x="432" 
d="M366 591q20 0 13 -12q-5 -8 -5 -21q0 -5 -13 -2q-72 20 -241 18v-136q23 30 67 30q32 0 67 -18l46 -26q15 -6 31 -6q32 0 38 25q-1 0 -3 3q-4 5 1 9q7 1 9 -6.5t2 -14.5q0 -28 -30 -44q-22 -12 -47 -12q-23 0 -43 11l-48 32q-31 21 -52 21q-23 0 -38 -24v-399
q109 0 145 4q72 7 140 36q3 1 5 1q6 0 7 -8q0 -6 -3 -10q-12 -15 -16 -34q3 -2 3 -4q0 -5 -8 -4h-344q-16 0 -16 6l9.5 3.5t9.5 23.5v525q0 20 -9.5 23.5t-9.5 4.5q0 5 16 5h317zM99 792q53 -73 109 -137q8 -10 4 -14q-5 -5 -15 3q-37 31 -139 110q-6 5 6.5 14t22.5 22
q7 9 12 2z" />
    <glyph glyph-name="Eacute" unicode="&#xc9;" horiz-adv-x="432" 
d="M366 591q20 0 13 -12q-5 -8 -5 -21q0 -5 -13 -2q-72 20 -241 18v-136q23 30 67 30q32 0 67 -18l46 -26q15 -6 31 -6q32 0 38 25q-1 0 -3 3q-4 5 1 9q7 1 9 -6.5t2 -14.5q0 -28 -30 -44q-22 -12 -47 -12q-23 0 -43 11l-48 32q-31 21 -52 21q-23 0 -38 -24v-399
q109 0 145 4q72 7 140 36q3 1 5 1q6 0 7 -8q0 -6 -3 -10q-12 -15 -16 -34q3 -2 3 -4q0 -5 -8 -4h-344q-16 0 -16 6l9.5 3.5t9.5 23.5v525q0 20 -9.5 23.5t-9.5 4.5q0 5 16 5h317zM259 792q-54 -73 -109 -137q-8 -10 -4 -14q4 -5 14 3q38 31 140 110q6 5 -6.5 14t-23.5 22
q-6 9 -11 2z" />
    <glyph glyph-name="Ecircumflex" unicode="&#xca;" horiz-adv-x="432" 
d="M366 591q20 0 13 -12q-5 -8 -5 -21q0 -5 -13 -2q-72 20 -241 18v-136q23 30 67 30q32 0 67 -18l46 -26q15 -6 31 -6q32 0 38 25q-1 0 -3 3q-4 5 1 9q7 1 9 -6.5t2 -14.5q0 -28 -30 -44q-22 -12 -47 -12q-23 0 -43 11l-48 32q-31 21 -52 21q-23 0 -38 -24v-399
q109 0 145 4q72 7 140 36q3 1 5 1q6 0 7 -8q0 -6 -3 -10q-12 -15 -16 -34q3 -2 3 -4q0 -5 -8 -4h-344q-16 0 -16 6l9.5 3.5t9.5 23.5v525q0 20 -9.5 23.5t-9.5 4.5q0 5 16 5h317zM294 633q-11 -6 -22 3l-93 67l-93 -67q-12 -8 -22 -3q-5 2 -1 7l96 102q7 8 20 8t21 -8
l95 -102q4 -5 -1 -7z" />
    <glyph glyph-name="Edieresis" unicode="&#xcb;" horiz-adv-x="432" 
d="M366 591q20 0 13 -12q-5 -8 -5 -21q0 -5 -13 -2q-72 20 -241 18v-136q23 30 67 30q32 0 67 -18l46 -26q15 -6 31 -6q32 0 38 25q-1 0 -3 3q-4 5 1 9q7 1 9 -6.5t2 -14.5q0 -28 -30 -44q-22 -12 -47 -12q-23 0 -43 11l-48 32q-31 21 -52 21q-23 0 -38 -24v-399
q109 0 145 4q72 7 140 36q3 1 5 1q6 0 7 -8q0 -6 -3 -10q-12 -15 -16 -34q3 -2 3 -4q0 -5 -8 -4h-344q-16 0 -16 6l9.5 3.5t9.5 23.5v525q0 20 -9.5 23.5t-9.5 4.5q0 5 16 5h317zM72 688q0 15 10.5 25t24.5 10q15 0 25 -10t10 -25q0 -14 -10 -24.5t-25 -10.5
q-14 0 -24.5 10.5t-10.5 24.5zM187 688q0 15 10 25t25 10q14 0 24.5 -10t10.5 -25q0 -14 -10.5 -24.5t-24.5 -10.5q-15 0 -25 10.5t-10 24.5z" />
    <glyph glyph-name="Igrave" unicode="&#xcc;" horiz-adv-x="249" 
d="M167 569q0 11 -7 11.5t-7 6.5q0 5 8 4q41 -3 81 0q7 1 7 -4q0 -6 -6.5 -6.5t-6.5 -10.5v-549q0 -10 6.5 -10.5t6.5 -6.5q0 -4 -7 -4q-42 3 -81 0q-8 -1 -8 4q0 6 7 6.5t7 11.5v547zM41 792q53 -73 109 -137q8 -10 4 -14q-4 -5 -15 3q-37 31 -139 110q-6 5 6.5 14t22.5 22
q7 9 12 2z" />
    <glyph glyph-name="Iacute" unicode="&#xcd;" horiz-adv-x="163" 
d="M35 569q0 11 -6 12q-9 0 -9 6q0 5 9 4q41 -3 81 0q7 1 7 -4q0 -6 -7 -6.5t-7 -10.5v-549q0 -10 7 -10.5t7 -6.5q0 -4 -7 -4q-42 3 -81 0q-9 -1 -9 4q0 6 9 6q6 1 6 12v547zM132 792q-53 -73 -109 -137q-8 -10 -4 -14q5 -5 15 3q37 31 139 110q6 5 -6.5 14t-22.5 22
q-7 9 -12 2z" />
    <glyph glyph-name="Icircumflex" unicode="&#xce;" horiz-adv-x="150" 
d="M31 569q0 11 -7 11.5t-7 6.5q0 5 8 4q41 -3 81 0q7 1 7 -4q0 -6 -6.5 -6.5t-6.5 -10.5v-549q0 -10 6.5 -10.5t6.5 -6.5q0 -4 -7 -4q-42 3 -81 0q-8 -1 -8 4q0 6 7 6.5t7 11.5v547zM158 602q-11 -5 -22 3l-93 67l-93 -67q-12 -8 -22 -3q-5 3 -1 7l96 103q7 8 20 8t21 -8
l95 -103q4 -4 -1 -7z" />
    <glyph glyph-name="Idieresis" unicode="&#xcf;" horiz-adv-x="143" 
d="M35 569q0 11 -7.5 11.5t-7.5 6.5q0 5 8 4q41 -3 81 0q8 1 8 -4q0 -6 -7 -6.5t-7 -10.5v-549q0 -10 7 -10.5t7 -6.5q0 -4 -8 -4q-42 3 -81 0q-8 -1 -8 4q0 6 7.5 6.5t7.5 11.5v547zM-49 688q0 15 10 25t25 10q14 0 24.5 -10t10.5 -25q0 -14 -10.5 -24.5t-24.5 -10.5
q-15 0 -25 10.5t-10 24.5zM66 688q0 15 10 25t25 10q14 0 24.5 -10t10.5 -25q0 -14 -10.5 -24.5t-24.5 -10.5q-15 0 -25 10.5t-10 24.5z" />
    <glyph glyph-name="Eth" unicode="&#xd0;" horiz-adv-x="473" 
d="M0 573q0 7 -7 8.5t-7 5.5t8 4q7 0 21 -1.5t21 -1.5q12 0 37.5 2.5t38.5 2.5q129 0 219 -83t90 -211t-90 -214.5t-219 -86.5q-15 0 -44.5 1.5t-43.5 1.5h-15q-10 -1 -15 -1q-8 0 -8 4t7 5.5t7 8.5v268h-59q-10 0 -10 13q0 10 10 10h59v264zM68 565v-256h65q10 0 10 -12
q0 -11 -10 -11h-65v-259q0 -16 28 -16q39 0 80 14q83 27 125 108q36 69 36 165q0 205 -131 259q-48 20 -103 20q-35 0 -35 -12z" />
    <glyph glyph-name="Ntilde" unicode="&#xd1;" horiz-adv-x="455" 
d="M393 -4l-290 471q-4 8 -7 8t-3 -7l9 -421q0 -10 13 -37q5 -10 -6 -10q-19 2 -48 0q-6 0 -7 3t2.5 8t11.5 37l11 449q0 10 -3 13l-37 58q-5 8 -13 11.5t-8 6.5q0 6 9 5q44 -2 68 -0.5t40 -25.5l255 -438l-5 417q0 17 -13 37q-3 5 -1 8q1 3 7 2q23 -1 47 0q6 1 7 -2
q2 -2 -1 -7q-6 -5 -14 -37l-11 -421q-3 -123 11 -128q4 -2 4 -6q0 -10 -9 -10t-19 16zM230 635q-23 0 -61 14.5t-58 14.5q-11 0 -21 -3q-19 -4 -19 -23q0 -6 4 -10q3 0 3 -4t-4 -5q-6 -2 -9.5 6t-3.5 16q0 31 31 46q13 7 31 7q23 0 71 -14t68 -14q41 0 46 32q-5 4 -3 10
q2 7 7 6q10 0 8 -18q-8 -31 -35.5 -46t-54.5 -15z" />
    <glyph glyph-name="Ograve" unicode="&#xd2;" horiz-adv-x="582" 
d="M482 298q0 120 -56.5 204t-136.5 84q-79 0 -135 -84t-56 -204q0 -121 56 -205t135 -84q80 0 136.5 84t56.5 205zM555 298q0 -119 -72 -209q-78 -95 -194 -95q-115 0 -193 96q-72 89 -72 208q0 117 73 207q77 96 192 96q116 0 193 -96q73 -89 73 -207zM182 792
q53 -73 109 -137q8 -10 4 -14q-5 -5 -15 3q-37 31 -139 110q-6 5 6.5 14t22.5 22q7 9 12 2z" />
    <glyph glyph-name="Oacute" unicode="&#xd3;" horiz-adv-x="582" 
d="M482 298q0 120 -56.5 204t-136.5 84q-79 0 -135 -84t-56 -204q0 -121 56 -205t135 -84q80 0 136.5 84t56.5 205zM555 298q0 -119 -72 -209q-78 -95 -194 -95q-115 0 -193 96q-72 89 -72 208q0 117 73 207q77 96 192 96q116 0 193 -96q73 -89 73 -207zM380 792
q-54 -73 -109 -137q-8 -10 -4 -14q4 -5 14 3q38 31 140 110q6 5 -6.5 14t-22.5 22q-7 9 -12 2z" />
    <glyph glyph-name="Ocircumflex" unicode="&#xd4;" horiz-adv-x="582" 
d="M482 298q0 120 -56.5 204t-136.5 84q-79 0 -135 -84t-56 -204q0 -121 56 -205t135 -84q80 0 136.5 84t56.5 205zM555 298q0 -119 -72 -209q-78 -95 -194 -95q-115 0 -193 96q-72 89 -72 208q0 117 73 207q77 96 192 96q116 0 193 -96q73 -89 73 -207zM378 634
q-11 -5 -22 3l-93 67l-94 -67q-11 -8 -22 -3q-5 3 0 7l95 103q8 8 21 8t20 -8l95 -103q5 -4 0 -7z" />
    <glyph glyph-name="Otilde" unicode="&#xd5;" horiz-adv-x="582" 
d="M482 298q0 120 -56.5 204t-136.5 84q-79 0 -135 -84t-56 -204q0 -121 56 -205t135 -84q80 0 136.5 84t56.5 205zM555 298q0 -119 -72 -209q-78 -95 -194 -95q-115 0 -193 96q-72 89 -72 208q0 117 73 207q77 96 192 96q116 0 193 -96q73 -89 73 -207zM384 650
q-29 -15 -56 -15q-22 0 -60.5 14.5t-58.5 14.5q-10 0 -20 -3q-20 -4 -20 -23q0 -6 4 -10q3 0 3 -4t-4 -5q-6 -2 -9 6t-3 16q0 31 30 46q13 7 31 7q23 0 71.5 -14t67.5 -14q42 0 47 32q-6 4 -4 10q2 7 7 6q10 0 8 -18q-8 -31 -34 -46z" />
    <glyph glyph-name="Odieresis" unicode="&#xd6;" horiz-adv-x="582" 
d="M482 298q0 120 -56.5 204t-136.5 84q-79 0 -135 -84t-56 -204q0 -121 56 -205t135 -84q80 0 136.5 84t56.5 205zM555 298q0 -119 -72 -209q-78 -95 -194 -95q-115 0 -193 96q-72 89 -72 208q0 117 73 207q77 96 192 96q116 0 193 -96q73 -89 73 -207zM181 688q0 15 10 25
t25 10q14 0 24.5 -10t10.5 -25q0 -14 -10.5 -24.5t-24.5 -10.5q-15 0 -25 10.5t-10 24.5zM296 688q0 15 10 25t24 10q15 0 25 -10t10 -25q0 -14 -10 -24.5t-25 -10.5q-14 0 -24 10.5t-10 24.5z" />
    <glyph glyph-name="Oslash" unicode="&#xd8;" horiz-adv-x="714" 
d="M239 73q53 -64 121 -64q79 0 135.5 84t56.5 205q0 114 -52 197q-23 -44 -55 -129q-40 -106 -40 -107q-53 -124 -166 -186zM464 541q-48 45 -104 45q-79 0 -135.5 -84t-56.5 -204q0 -124 58 -208q27 19 48 45q43 51 85 170q53 151 61 167q21 43 44 69zM659 509
q0 65 -58 65q-47 0 -77 -40q104 -94 104 -236q0 -126 -79 -215t-189 -89q-89 0 -160 61q-55 -20 -112 -14q-76 7 -88 33q-3 4 -3 8q0 9 9 9q13 0 9 -14q36 -30 88 -30q42 0 85 20q-93 91 -93 231q0 124 77.5 213.5t187.5 89.5h2q64 0 124 -38q39 32 96 31q45 0 81 -36
q14 -15 14 -33q0 -19 -11 -19q-4 0 -7 3z" />
    <glyph glyph-name="Ugrave" unicode="&#xd9;" horiz-adv-x="468" 
d="M74 289q0 84 31 148q16 35 56 83q31 37 31 56q0 18 -12 18t-30 -12q10 -7 10 -22q0 -19 -22 -43q-67 -70 -94 -117q-37 -66 -37 -144q0 -121 77 -193q74 -70 193 -70q69 0 143 38q16 8 29 8q7 0 20.5 -3.5t21.5 -3.5t8 4q0 2 -7.5 8t-7.5 21v509q0 9 7 10.5t7 6.5
q0 3 -4 3q-7 0 -21.5 -1.5t-21.5 -1.5q-8 0 -22 1.5t-21 1.5q-5 0 -5 -3q0 -5 7 -6.5t7 -8.5v-476q0 -89 -132 -89q-109 0 -164 88q-47 74 -47 190zM-123 744q0 -11 7.5 -21.5t17.5 -10.5q13 0 7 13q-13 7 -13 25q0 22 18.5 35t45.5 13q48 0 66 -37t55 -111q13 -23 41.5 -37
t56.5 -14q13 0 30.5 6.5t17.5 17.5q0 7 -10 7q-12 0 -6 -10q-4 -13 -23 -13q-40 0 -70 49q-21 42 -41 83q-38 70 -110 70q-37 0 -63.5 -19t-26.5 -46zM100 792q53 -73 108 -137q9 -10 4 -14q-4 -5 -14 3q-37 31 -139 110q-7 5 7 14q11 9 22 22q6 9 12 2z" />
    <glyph glyph-name="Uacute" unicode="&#xda;" horiz-adv-x="468" 
d="M74 289q0 84 31 148q16 35 56 83q31 37 31 56q0 18 -12 18t-30 -12q10 -7 10 -22q0 -19 -22 -43q-67 -70 -94 -117q-37 -66 -37 -144q0 -121 77 -193q74 -70 193 -70q69 0 143 38q16 8 29 8q7 0 20.5 -3.5t21.5 -3.5t8 4q0 2 -7.5 8t-7.5 21v509q0 9 7 10.5t7 6.5
q0 3 -4 3q-7 0 -21.5 -1.5t-21.5 -1.5q-8 0 -22 1.5t-21 1.5q-5 0 -5 -3q0 -5 7 -6.5t7 -8.5v-476q0 -89 -132 -89q-109 0 -164 88q-47 74 -47 190zM-123 744q0 -11 7.5 -21.5t17.5 -10.5q13 0 7 13q-13 7 -13 25q0 22 18.5 35t45.5 13q48 0 66 -37t55 -111q13 -23 41.5 -37
t56.5 -14q13 0 30.5 6.5t17.5 17.5q0 7 -10 7q-12 0 -6 -10q-4 -13 -23 -13q-40 0 -70 49q-21 42 -41 83q-38 70 -110 70q-37 0 -63.5 -19t-26.5 -46zM316 792q-53 -73 -109 -137q-8 -10 -4 -14q4 -5 15 3q37 31 139 110q6 5 -6.5 14t-22.5 22q-7 9 -12 2z" />
    <glyph glyph-name="Ucircumflex" unicode="&#xdb;" horiz-adv-x="516" 
d="M74 289q0 84 31 148q16 35 56 83q31 37 31 56q0 18 -12 18t-30 -12q10 -7 10 -22q0 -19 -22 -43q-67 -70 -94 -117q-37 -66 -37 -144q0 -121 77 -193q74 -70 193 -70q69 0 143 38q16 8 29 8q7 0 20.5 -3.5t21.5 -3.5t8 4q0 2 -7.5 8t-7.5 21v509q0 9 7 10.5t7 6.5
q0 3 -4 3q-7 0 -21.5 -1.5t-21.5 -1.5q-8 0 -22 1.5t-21 1.5q-5 0 -5 -3q0 -5 7 -6.5t7 -8.5v-476q0 -89 -132 -89q-109 0 -164 88q-47 74 -47 190zM-123 744q0 -11 7.5 -21.5t17.5 -10.5q13 0 7 13q-13 7 -13 25q0 22 18.5 35t45.5 13q48 0 66 -37t55 -111q13 -23 41.5 -37
t56.5 -14q13 0 30.5 6.5t17.5 17.5q0 7 -10 7q-12 0 -6 -10q-4 -13 -23 -13q-40 0 -70 49q-21 42 -41 83q-38 70 -110 70q-37 0 -63.5 -19t-26.5 -46zM320 634q-11 -5 -22 3l-93 67l-93 -67q-11 -8 -22 -3q-5 3 -1 7l96 103q8 8 20 8q13 0 21 -8l95 -103q4 -4 -1 -7z" />
    <glyph glyph-name="Udieresis" unicode="&#xdc;" horiz-adv-x="468" 
d="M74 289q0 84 31 148q16 35 56 83q31 37 31 56q0 18 -12 18t-30 -12q10 -7 10 -22q0 -19 -22 -43q-67 -70 -94 -117q-37 -66 -37 -144q0 -121 77 -193q74 -70 193 -70q69 0 143 38q16 8 29 8q7 0 20.5 -3.5t21.5 -3.5t8 4q0 2 -7.5 8t-7.5 21v509q0 9 7 10.5t7 6.5
q0 3 -4 3q-7 0 -21.5 -1.5t-21.5 -1.5q-8 0 -22 1.5t-21 1.5q-5 0 -5 -3q0 -5 7 -6.5t7 -8.5v-476q0 -89 -132 -89q-109 0 -164 88q-47 74 -47 190zM-123 744q0 -11 7.5 -21.5t17.5 -10.5q13 0 7 13q-13 7 -13 25q0 22 18.5 35t45.5 13q48 0 66 -37t55 -111q13 -23 41.5 -37
t56.5 -14q13 0 30.5 6.5t17.5 17.5q0 7 -10 7q-12 0 -6 -10q-4 -13 -23 -13q-40 0 -70 49q-21 42 -41 83q-38 70 -110 70q-37 0 -63.5 -19t-26.5 -46zM123 688q0 15 10.5 25t24.5 10q15 0 25 -10t10 -25q0 -14 -10 -24.5t-25 -10.5q-14 0 -24.5 10.5t-10.5 24.5zM238 688
q0 15 10.5 25t24.5 10q15 0 25 -10t10 -25q0 -14 -10 -24.5t-25 -10.5q-14 0 -24.5 10.5t-10.5 24.5z" />
    <glyph glyph-name="Yacute" unicode="&#xdd;" horiz-adv-x="610" 
d="M301 304v-293q4 -1 9 -1.5t5 -5.5q0 -4 -7 -4t-21.5 1t-21.5 1h4q-8 0 -22.5 -1t-21.5 -1q-6 0 -6 4q0 5 4.5 5.5t9.5 1.5v305q0 7 -3 11l-172 237q-6 7 -19 16q-10 2 -10 6q0 5 6 5q8 0 24.5 -1t25.5 -1q8 0 25.5 1t25.5 1q11 0 11 -5q0 -6 -10 -6q77 -117 158 -235
q3 1 5 3q30 36 108 165q85 138 85 163q0 1 -4 2.5t-4 4.5q0 5 8 5q7 0 22 -1t22 -1t21.5 1t22.5 1q7 0 7 -5t-7 -7q-11 -4 -12 -5q-46 -32 -133 -155q-11 -17 -119 -177q-16 -25 -16 -35zM361 792q-54 -73 -109 -137q-8 -10 -4 -14q4 -5 14 3q38 30 140 110q6 5 -6.5 14
t-23.5 22q-6 9 -11 2z" />
    <glyph glyph-name="Thorn" unicode="&#xde;" horiz-adv-x="455" 
d="M14 676q0 11 -7 12t-7 6t7 4q42 -4 76 -1v-52.5v-53.5q41 4 85 -2q103 -16 169.5 -79t66.5 -152q0 -102 -86 -170t-209 -68h-22q-5 0 -5 -8v-91q0 -10 7.5 -10.5t7.5 -5.5t-9 -4q-27 2 -41 2t-40 -2q-7 -1 -7 4t7 5.5t7 11.5v654zM82 557v-409q0 -12 16 -12q112 0 172 65
q54 59 54 156q0 192 -167 218q-31 4 -62 2q-11 0 -12 -2.5t-1 -17.5z" />
    <glyph glyph-name="germandbls" unicode="&#xdf;" horiz-adv-x="559" 
d="M-71 796q18 8 38 8q71 0 113 -70q0 -1 29 -61q17 -35 40 -54q19 -16 42 -16q19 0 23 13q-2 2 -2 4q0 5 8 5q10 0 10 -6q0 -3 -3 -6q-15 -19 -47 -19q-28 0 -56.5 14.5t-40.5 36.5q-18 37 -54 112q-17 36 -67 36q-28 0 -47.5 -14.5t-16.5 -38.5q1 -15 13 -21q1 -2 1 -5
q0 -7 -8 -7q-13 0 -22 18q-3 7 -3 14q0 36 50 57zM420 568q0 11 -7 12.5t-7 5.5q0 5 8 4q40 -3 81 0q7 1 7 -4q0 -4 -7 -5.5t-7 -11.5v-506q0 -16 7 -20.5t7 -7.5q0 -8 -13 -3q-34 13 -65 -2q-59 -37 -151 -37q-75 0 -137.5 32.5t-95.5 96.5q-31 60 -31 132q0 62 24 116
q28 64 107 144q23 23 23 42q0 13 -10 21q19 13 30 13t11 -18q0 -25 -37 -69q-45 -54 -52 -68q-28 -62 -28 -147q0 -104 41 -179q47 -86 130 -96q20 -2 41 -2q131 0 131 87v470z" />
    <glyph glyph-name="agrave" unicode="&#xe0;" horiz-adv-x="466" 
d="M450 3q-52 21 -84 90q-3 -28 -40 -57q-44 -34 -107 -41q-13 -1 -26 -1q-68 0 -114.5 36.5t-46.5 91.5q0 28 13 57q31 69 115 93q49 15 99 11q-14 30 -47 58q-39 32 -75 32q-22 0 -40 -12l-21 -12q-7 0 -7 6q0 9 10 16q27 17 66 17q53 0 98 -25q112 -62 165 -248
q25 -86 51 -99q8 -4 8 -10q0 -11 -17 -3zM89 138q0 -45 27 -81q34 -45 99 -45q46 0 81 26q57 42 48 90q-21 42 -66 126q-29 14 -59 14q-53 0 -91.5 -39t-38.5 -91zM76 582q53 -73 109 -138q8 -9 4 -14q-4 -4 -15 4q-37 30 -139 109q-6 5 6.5 14.5t22.5 21.5q7 10 12 3z" />
    <glyph glyph-name="aacute" unicode="&#xe1;" horiz-adv-x="455" 
d="M437 3q-51 21 -84 90q-2 -28 -40 -57q-44 -34 -106 -41q-13 -1 -26 -1q-69 0 -115 36.5t-46 91.5q0 28 13 57q31 69 115 93q49 15 99 11q-14 30 -47 58q-39 32 -76 32q-21 0 -39 -12l-21 -12q-7 0 -7 6q0 9 10 16q26 17 65 17q54 0 99 -25q112 -62 165 -248
q24 -86 51 -99q8 -4 8 -10q0 -11 -18 -3zM76 138q0 -45 28 -81q33 -45 99 -45q46 0 81 26q57 42 48 90q-21 42 -67 126q-29 14 -58 14q-53 0 -92 -39t-39 -91zM239 601q-53 -73 -108 -138q-9 -9 -4 -14q4 -4 14 4q37 30 139 109q7 5 -5.5 14.5t-23.5 21.5q-6 10 -12 3z" />
    <glyph glyph-name="acircumflex" unicode="&#xe2;" horiz-adv-x="455" 
d="M437 3q-51 21 -84 90q-2 -28 -40 -57q-44 -34 -106 -41q-13 -1 -26 -1q-69 0 -115 36.5t-46 91.5q0 28 13 57q31 69 115 93q49 15 99 11q-14 30 -47 58q-39 32 -76 32q-21 0 -39 -12l-21 -12q-7 0 -7 6q0 9 10 16q26 17 65 17q54 0 99 -25q112 -62 165 -248
q24 -86 51 -99q8 -4 8 -10q0 -11 -18 -3zM76 138q0 -45 28 -81q33 -45 99 -45q46 0 81 26q57 42 48 90q-21 42 -67 126q-29 14 -58 14q-53 0 -92 -39t-39 -91zM263 421q-8 -4 -17 3l-88 63l-88 -63q-9 -6 -17 -2l1 1l88 95q6 6 17 6q10 0 16 -6l88 -95q1 -1 0 -2z" />
    <glyph glyph-name="atilde" unicode="&#xe3;" horiz-adv-x="455" 
d="M437 3q-51 21 -84 90q-2 -28 -40 -57q-44 -34 -106 -41q-13 -1 -26 -1q-69 0 -115 36.5t-46 91.5q0 28 13 57q31 69 115 93q49 15 99 11q-14 30 -47 58q-39 32 -76 32q-21 0 -39 -12l-21 -12q-7 0 -7 6q0 9 10 16q26 17 65 17q54 0 99 -25q112 -62 165 -248
q24 -86 51 -99q8 -4 8 -10q0 -11 -18 -3zM76 138q0 -45 28 -81q33 -45 99 -45q46 0 81 26q57 42 48 90q-21 42 -67 126q-29 14 -58 14q-53 0 -92 -39t-39 -91zM213 418q-22 0 -60 15t-59 15q-10 0 -20 -3q-19 -5 -19 -23q0 -6 3 -10q3 0 3 -4t-4 -5q-6 -2 -9 6t-3 15
q0 32 30 47q14 6 32 6q22 0 70.5 -14t67.5 -14q42 0 47 33q-5 3 -3 10q1 6 7 6q9 0 7 -18q-8 -31 -35 -46.5t-55 -15.5z" />
    <glyph glyph-name="adieresis" unicode="&#xe4;" horiz-adv-x="461" 
d="M437 3q-51 21 -84 90q-2 -28 -40 -57q-44 -34 -106 -41q-13 -1 -26 -1q-69 0 -115 36.5t-46 91.5q0 28 13 57q31 69 115 93q49 15 99 11q-14 30 -47 58q-39 32 -76 32q-21 0 -39 -12l-21 -12q-7 0 -7 6q0 9 10 16q26 17 65 17q54 0 99 -25q112 -62 165 -248
q24 -86 51 -99q8 -4 8 -10q0 -11 -18 -3zM76 138q0 -45 28 -81q33 -45 99 -45q46 0 81 26q57 42 48 90q-21 42 -67 126q-29 14 -58 14q-53 0 -92 -39t-39 -91zM40 464q0 14 10.5 24t24.5 10q15 0 25 -10t10 -24q0 -15 -10 -25t-25 -10q-14 0 -24.5 10t-10.5 25zM155 464
q0 14 10.5 24t24.5 10q15 0 25 -10t10 -24q0 -15 -10 -25t-25 -10q-14 0 -24.5 10t-10.5 25z" />
    <glyph glyph-name="aring" unicode="&#xe5;" horiz-adv-x="461" 
d="M437 3q-51 21 -84 90q-2 -28 -40 -57q-44 -34 -106 -41q-13 -1 -26 -1q-69 0 -115 36.5t-46 91.5q0 28 13 57q31 69 115 93q49 15 99 11q-14 30 -47 58q-39 32 -76 32q-21 0 -39 -12l-21 -12q-7 0 -7 6q0 9 10 16q26 17 65 17q54 0 99 -25q112 -62 165 -248
q24 -86 51 -99q8 -4 8 -10q0 -11 -18 -3zM76 138q0 -45 28 -81q33 -45 99 -45q46 0 81 26q57 42 48 90q-21 42 -67 126q-29 14 -58 14q-53 0 -92 -39t-39 -91zM170 544q23 0 39 -16t16 -39q0 -22 -16 -38.5t-39 -16.5q-22 0 -38.5 16.5t-16.5 38.5q0 23 16.5 39t38.5 16z
M170 522q-33 0 -33 -33t33 -33t33 33t-33 33z" />
    <glyph glyph-name="ae" unicode="&#xe6;" horiz-adv-x="771" 
d="M56 134q0 -44 28 -80q33 -45 99 -45q45 0 80 25q55 42 47 90q-21 42 -67 125q-28 14 -58 14q-51 0 -90 -39t-39 -90zM455 221q10 0 22 -2q47 -8 144 -17q21 -1 26 17q8 26 -5 60q-15 38 -47 62t-70 24q-18 0 -35 -6q-104 -34 -104 -157q0 -30 7 -59q13 -56 49 -93
q41 -42 98 -42q15 0 32 3q71 15 100 49q-9 8 2 18q16 11 19 -3q3 -13 -28 -38q-63 -50 -157 -50q-45 0 -81 13q-52 20 -96 89q-2 -27 -39 -56q-44 -34 -106 -41q-12 -1 -25 -1q-69 0 -115 36.5t-46 91.5q0 28 13 56q31 68 114 93q48 14 98 10q-21 32 -50 59.5t-78 27.5
q-22 0 -33 -9q-18 -15 -25 -10q-2 1 -2 4q0 7 9 15q19 16 59 16q61 0 104 -23q77 -42 119 -115q22 64 80.5 103t127.5 39q41 0 78 -16q74 -33 100 -93q10 -30 19 -59q20 -14 -41 -24q-25 -5 -53 -5q-14 0 -166 19q-46 5 -73 -11q-11 -6 -11 -1q0 11 29 19q23 7 37 7z" />
    <glyph glyph-name="ccedilla" unicode="&#xe7;" horiz-adv-x="423" 
d="M269 -75q0 -49 -62 -49q-22 0 -52 9q-38 11 -38 27q0 7 8 7q5 0 30 -10t43 -10q32 0 32 26q0 25 -30 25q-6 0 -19 -1l1 39h-4q-85 9 -134 64q-44 51 -44 122q0 72 45 131q25 34 72.5 56t100.5 22q59 0 107 -29q8 -6 1 -19q-11 -22 -38 -30q-6 -2 -9 -1q-4 1 -3 5
q1 6 1 11q0 44 -71 44q-21 0 -36 -5q-102 -34 -102 -157q0 -30 7 -59q13 -56 48 -93q41 -42 97 -42q16 0 32 3q69 14 98 49q-9 8 2 18q5 4 11 4q7 0 9 -7q2 -13 -29 -38q-62 -50 -144 -50v-16q4 1 17 1q53 0 53 -47z" />
    <glyph glyph-name="egrave" unicode="&#xe8;" horiz-adv-x="467" 
d="M158 225q10 0 22 -2q47 -8 144 -17q21 -1 26 17q8 26 -5 60q-15 38 -47 62t-70 24q-18 0 -35 -6q-104 -34 -104 -157q0 -30 7 -59q13 -56 49 -93q41 -42 98 -42q15 0 32 3q71 15 100 49q-9 8 2 18q16 11 19 -3q3 -13 -28 -38q-62 -50 -146 -50q-83 0 -142 51t-60 134
q-2 70 39 125t109 76q35 12 71 12q41 0 78 -16q74 -33 100 -93q10 -30 19 -59q20 -14 -41 -24q-25 -5 -53 -5q-14 0 -166 19q-46 5 -73 -11q-11 -6 -11 -1q0 11 29 19q23 7 37 7zM112 582q53 -73 108 -138q9 -9 4 -14q-4 -4 -14 4q-37 30 -139 109q-7 5 7 14q11 10 22 22
q6 10 12 3z" />
    <glyph glyph-name="eacute" unicode="&#xe9;" horiz-adv-x="467" 
d="M158 225q10 0 22 -2q47 -8 144 -17q21 -1 26 17q8 26 -5 60q-15 38 -47 62t-70 24q-18 0 -35 -6q-104 -34 -104 -157q0 -30 7 -59q13 -56 49 -93q41 -42 98 -42q15 0 32 3q71 15 100 49q-9 8 2 18q16 11 19 -3q3 -13 -28 -38q-62 -50 -146 -50q-83 0 -142 51t-60 134
q-2 70 39 125t109 76q35 12 71 12q41 0 78 -16q74 -33 100 -93q10 -30 19 -59q20 -14 -41 -24q-25 -5 -53 -5q-14 0 -166 19q-46 5 -73 -11q-11 -6 -11 -1q0 11 29 19q23 7 37 7zM303 601q-53 -73 -109 -138q-8 -9 -4 -14q5 -4 15 4q37 30 139 109q6 5 -6 14.5t-23 21.5
q-7 10 -12 3z" />
    <glyph glyph-name="ecircumflex" unicode="&#xea;" horiz-adv-x="467" 
d="M158 225q10 0 22 -2q47 -8 144 -17q21 -1 26 17q8 26 -5 60q-15 38 -47 62t-70 24q-18 0 -35 -6q-104 -34 -104 -157q0 -30 7 -59q13 -56 49 -93q41 -42 98 -42q15 0 32 3q71 15 100 49q-9 8 2 18q16 11 19 -3q3 -13 -28 -38q-62 -50 -146 -50q-83 0 -142 51t-60 134
q-2 70 39 125t109 76q35 12 71 12q41 0 78 -16q74 -33 100 -93q10 -30 19 -59q20 -14 -41 -24q-25 -5 -53 -5q-14 0 -166 19q-46 5 -73 -11q-11 -6 -11 -1q0 11 29 19q23 7 37 7zM308 421q-8 -4 -17 3l-88 63l-88 -63q-9 -6 -17 -2q-1 0 0 1l89 95q6 6 16 6q11 0 17 -6
l88 -95q1 -1 0 -2z" />
    <glyph glyph-name="edieresis" unicode="&#xeb;" horiz-adv-x="467" 
d="M158 225q10 0 22 -2q47 -8 144 -17q21 -1 26 17q8 26 -5 60q-15 38 -47 62t-70 24q-18 0 -35 -6q-104 -34 -104 -157q0 -30 7 -59q13 -56 49 -93q41 -42 98 -42q15 0 32 3q71 15 100 49q-9 8 2 18q16 11 19 -3q3 -13 -28 -38q-62 -50 -146 -50q-83 0 -142 51t-60 134
q-2 70 39 125t109 76q35 12 71 12q41 0 78 -16q74 -33 100 -93q10 -30 19 -59q20 -14 -41 -24q-25 -5 -53 -5q-14 0 -166 19q-46 5 -73 -11q-11 -6 -11 -1q0 11 29 19q23 7 37 7zM124 464q0 14 10.5 24t24.5 10q15 0 25 -10t10 -24q0 -15 -10 -25t-25 -10q-14 0 -24.5 10
t-10.5 25zM239 464q0 14 10.5 24t24.5 10q15 0 25 -10t10 -24q0 -15 -10 -25t-25 -10q-14 0 -24.5 10t-10.5 25z" />
    <glyph glyph-name="igrave" unicode="&#xec;" horiz-adv-x="140" 
d="M74 363q0 9 2.5 12t1.5 6q-2 3 -12 1q-16 -3 -29 0.5t-26 6.5q-11 1 -11 -6q0 -4 6 -5t6 -16v-337q0 -10 -6 -11t-6 -5q0 -9 13 -5q16 5 33 2q14 -3 29 -7q11 -1 11 7q0 4 -6 5t-6 15v337zM-68 582q53 -73 108 -138q9 -9 4 -14q-4 -4 -14 4q-37 30 -139 109q-7 5 7 14
q11 10 22 22q6 10 12 3z" />
    <glyph glyph-name="iacute" unicode="&#xed;" horiz-adv-x="122" 
d="M67 363q0 9 2.5 12t1.5 6t-11 1q-16 -3 -29 0.5t-26 6.5q-12 1 -12 -6q0 -4 6.5 -5t6.5 -16v-337q0 -10 -6.5 -11t-6.5 -5q0 -9 13 -5q17 5 33 2q15 -3 29 -7q11 -1 11 7q0 4 -6 5t-6 15v337zM149 601q-54 -73 -109 -138q-8 -9 -4 -14q4 -4 14 4q38 30 140 109
q6 5 -6.5 14.5t-23.5 21.5q-6 10 -11 3z" />
    <glyph glyph-name="icircumflex" unicode="&#xee;" horiz-adv-x="140" 
d="M67 363q0 9 2.5 12t1.5 6t-12 1q-16 -3 -29 0.5t-26 6.5q-11 1 -11 -6q0 -4 6 -5t6 -16v-337q0 -10 -6 -11t-6 -5q0 -9 13 -5q16 5 33 2q14 -3 29 -7q11 -1 11 7q0 4 -6 5t-6 15v337zM140 421q-8 -4 -17 3l-88 63l-88 -63q-9 -6 -17 -2v1l89 95q6 6 16 6q11 0 17 -6
l88 -95q1 -1 0 -2z" />
    <glyph glyph-name="idieresis" unicode="&#xef;" horiz-adv-x="128" 
d="M63 363q0 9 2.5 12t1.5 6t-11 1q-16 -3 -29.5 0.5t-26.5 6.5q-11 1 -11 -6q0 -4 6 -5t6 -16v-337q0 -10 -6 -11t-6 -5q0 -9 13 -5q17 5 33 2q14 -3 29 -7q11 -1 11 7q0 4 -6 5t-6 15v337zM-61 464q0 14 10.5 24t24.5 10q15 0 25 -10t10 -24q0 -15 -10 -25t-25 -10
q-14 0 -24.5 10t-10.5 25zM54 464q0 14 10.5 24t24.5 10q15 0 25 -10t10 -24q0 -15 -10 -25t-25 -10q-14 0 -24.5 10t-10.5 25z" />
    <glyph glyph-name="eth" unicode="&#xf0;" horiz-adv-x="469" 
d="M418 27q-24 -16 -49 -41q-4 -5 -8 -5q-8 0 -2 15q8 13 4 25l-12 39q-2 5 -7 0q-60 -78 -169 -73q-48 3 -90 29t-63 63q-22 41 -22 88q0 56 31.5 106t88.5 79q49 25 104 25q18 0 37 -3q-4 10 -27 91h-64q-10 0 -10 10v3q0 10 10 10h57q-13 48 -24 82q-2 6 -2 10
q0 9 14 10.5t38 11.5q17 7 17 -4q-3 -17 -2 -20l25 -90h69q10 0 10 -10v-3q0 -10 -10 -10h-62l117 -416q1 -4 4 -8.5t3 -6.5q0 -3 -6 -7zM337 108q-23 78 -56 194l-1 -2q-8 -16 -24 -16q-11 0 -18 10t0 18q5 8 12 8q14 0 14 -15q4 0 5 4q1 3 0 9q-1 5 -3 10q-9 24 -41 30
q-12 2 -25 2q-89 0 -125 -74q-17 -37 -17 -81q0 -52 24 -99q40 -78 115 -95q11 -1 21 -1q51 0 85 30q31 27 34 68z" />
    <glyph glyph-name="ntilde" unicode="&#xf1;" horiz-adv-x="450" 
d="M74 371q30 24 67 24q56 0 95 -31q35 -28 67 -92q8 -16 61 -166q42 -120 84 -171q74 -87 171 -87q52 0 88 30q-4 14 9 14q9 0 9 -8q0 -21 -37 -36q-27 -10 -54 -13q-12 -2 -25 -2q-97 0 -183 74q-73 62 -108 146q-28 75 -55 149q-43 113 -72 142.5t-67 29.5q-42 0 -56 -36
v-317q0 -10 6.5 -10.5t6.5 -5.5q1 -5 -6 -5q-30 2 -38 2q-7 0 -37 -2q-7 0 -7 5q1 5 7 5.5t6 11.5v341q0 15 -6 16t-6 5q0 7 12 6q12 -3 25.5 -6.5t29.5 -0.5q10 2 11 -1t-1.5 -6.5t-3.5 -5.5q1 -1 1 -2q2 0 6 3zM168 450q-22 0 -60 15t-58 15q-11 0 -21 -3q-19 -5 -19 -23
q0 -6 3 -10q3 0 3 -4t-4 -5q-5 -2 -8.5 6t-3.5 15q0 32 31 47q13 6 31 6q22 0 70.5 -14t67.5 -14q42 0 47 33q-5 3 -3 10q2 6 7 5q10 0 7 -17q-8 -31 -35 -46.5t-55 -15.5z" />
    <glyph glyph-name="ograve" unicode="&#xf2;" horiz-adv-x="485" 
d="M237 390q90 0 154 -58t64 -140q0 -81 -64 -139.5t-154 -58.5q-89 0 -152.5 58.5t-63.5 139.5q0 82 63.5 140t152.5 58zM237 377q-64 0 -108 -53t-44 -132q0 -78 44 -129.5t108 -51.5q66 0 110 51.5t44 129.5q0 79 -44 132t-110 53zM112 582q53 -73 108 -138q9 -9 4 -14
q-4 -4 -14 4q-37 30 -139 109q-7 5 7 14q11 10 22 22q6 10 12 3z" />
    <glyph glyph-name="oacute" unicode="&#xf3;" horiz-adv-x="485" 
d="M237 390q90 0 154 -58t64 -140q0 -81 -64 -139.5t-154 -58.5q-89 0 -152.5 58.5t-63.5 139.5q0 82 63.5 140t152.5 58zM237 377q-64 0 -108 -53t-44 -132q0 -78 44 -129.5t108 -51.5q66 0 110 51.5t44 129.5q0 79 -44 132t-110 53zM316 601q-53 -73 -109 -138
q-8 -9 -4 -14q4 -4 15 4q37 30 139 109q6 5 -6.5 14.5t-21 20.5t-13.5 4z" />
    <glyph glyph-name="ocircumflex" unicode="&#xf4;" horiz-adv-x="485" 
d="M237 390q90 0 154 -58t64 -140q0 -81 -64 -139.5t-154 -58.5q-89 0 -152.5 58.5t-63.5 139.5q0 82 63.5 140t152.5 58zM237 377q-64 0 -108 -53t-44 -132q0 -78 44 -129.5t108 -51.5q66 0 110 51.5t44 129.5q0 79 -44 132t-110 53zM302 421q-8 -4 -17 3l-88 63l-89 -63
q-8 -6 -16 -2q-1 0 0 1l88 95q6 6 17 6q10 0 16 -6l89 -95v-2z" />
    <glyph glyph-name="otilde" unicode="&#xf5;" horiz-adv-x="485" 
d="M237 390q90 0 154 -58t64 -140q0 -81 -64 -139.5t-154 -58.5q-89 0 -152.5 58.5t-63.5 139.5q0 82 63.5 140t152.5 58zM237 377q-64 0 -108 -53t-44 -132q0 -78 44 -129.5t108 -51.5q66 0 110 51.5t44 129.5q0 79 -44 132t-110 53zM264 418q-22 0 -60 15t-59 15
q-10 0 -20 -3q-19 -5 -19 -23q0 -6 3 -10q3 0 3 -4t-4 -5q-5 -2 -8.5 6t-3.5 15q0 32 31 47q13 6 31 6q22 0 70.5 -14t67.5 -14q42 0 47 33q-5 3 -3 10q2 6 7 6q9 0 7 -18q-8 -31 -35 -46.5t-55 -15.5z" />
    <glyph glyph-name="odieresis" unicode="&#xf6;" horiz-adv-x="485" 
d="M237 390q90 0 154 -58t64 -140q0 -81 -64 -139.5t-154 -58.5q-89 0 -152.5 58.5t-63.5 139.5q0 82 63.5 140t152.5 58zM237 377q-64 0 -108 -53t-44 -132q0 -78 44 -129.5t108 -51.5q66 0 110 51.5t44 129.5q0 79 -44 132t-110 53zM120 464q0 14 10 24t25 10
q14 0 24.5 -10t10.5 -24q0 -15 -10.5 -25t-24.5 -10q-15 0 -25 10t-10 25zM235 464q0 14 10 24t25 10q14 0 24.5 -10t10.5 -24q0 -15 -10.5 -25t-24.5 -10q-15 0 -25 10t-10 25z" />
    <glyph glyph-name="divide" unicode="&#xf7;" horiz-adv-x="446" 
d="M156 229q85 8 130 58q41 46 41 117q0 81 -54 131q-50 45 -124 45q-27 0 -54 -7v-563q14 -1 14 -6t-8 -4q-26 2 -38 2q-16 0 -43 -2q-7 -1 -7 4t14 6v550q0 17 -9 20.5l-9 3.5q0 5 15 5h3v1q29 -5 68 0v-1q33 3 65 3q99 -1 165 -48q74 -51 74 -140q0 -57 -44 -104
t-112 -72q-8 -2 -4 -12q53 -115 166 -229q128 -129 239 -148q34 -6 59 -6q61 0 106 40q3 4 6 3t3 -7q-4 -24 -17 -31q-36 -22 -94 -22q-78 0 -159 35t-176 126q-61 59 -139 154q-64 80 -71 83q-3 1 -8 1q-48 -3 -51 21q-1 7 0 11q2 7 7 7q8 -1 8 -6v-10q6 -12 38 -9z" />
    <glyph glyph-name="oslash" unicode="&#xf8;" horiz-adv-x="652" 
d="M254 25q32 -18 69 -18q65 0 109.5 51.5t44.5 129.5q0 96 -62 150q-28 -76 -71 -187q-30 -71 -90 -126zM366 366q-21 7 -43 7q-65 0 -109 -53t-44 -132q0 -90 57 -143q42 52 77 157q41 126 62 164zM574 384q0 59 -53 59q-35 0 -62 -28q-15 -15 -33 -53q52 -25 83 -71.5
t31 -102.5q0 -81 -64 -139.5t-153 -58.5q-47 0 -90 18q-73 -56 -154 -56q-84 0 -102 37q-3 4 -3 7q0 9 8 9q12 0 9 -14q32 -26 80 -26q72 0 134 57q-99 60 -99 166q0 82 63.5 140t153.5 58q26 0 51 -5q50 80 130 80q41 -1 71 -31q20 -22 20 -36t-12 -14q-6 0 -9 4z" />
    <glyph glyph-name="ugrave" unicode="&#xf9;" horiz-adv-x="403" 
d="M285 16q-35 -28 -87 -28q-68 0 -114 42q-62 56 -62 141q0 89 57 158q54 65 54 101q0 23 -18 55q23 19 35 19q5 0 7 -3q4 -10 4 -25q0 -60 -42 -135q-31 -56 -31 -143q0 -95 40 -151q33 -46 78 -46q37 0 75 32q11 5 11 -6q0 -7 -7 -11zM297 364v-302q0 -42 -6.5 -48
t-6.5 -12q0 -11 15 -2q32 9 62 0q13 -4 13 3q0 3 -7 7t-7 19v335q0 10 6.5 10.5t6.5 5.5t-7 4q-45 -3 -75 0q-7 1 -7 -4t6.5 -5.5t6.5 -10.5zM99 633q53 -73 109 -138q8 -9 4 -14q-5 -4 -15 4q-37 30 -139 109q-6 5 6.5 14.5t22.5 21.5q7 10 12 3z" />
    <glyph glyph-name="uacute" unicode="&#xfa;" horiz-adv-x="408" 
d="M285 16q-35 -28 -87 -28q-68 0 -114 42q-62 56 -62 141q0 89 57 158q54 65 54 101q0 23 -18 55q23 19 35 19q5 0 7 -3q4 -10 4 -25q0 -60 -42 -135q-31 -56 -31 -143q0 -95 40 -151q33 -46 78 -46q37 0 75 32q11 5 11 -6q0 -7 -7 -11zM297 364v-302q0 -42 -6.5 -48
t-6.5 -12q0 -11 15 -2q32 9 62 0q13 -4 13 3q0 3 -7 7t-7 19v335q0 10 6.5 10.5t6.5 5.5t-7 4q-45 -3 -75 0q-7 1 -7 -4t6.5 -5.5t6.5 -10.5zM316 601q-53 -73 -109 -138q-8 -9 -4 -14q4 -4 15 4q37 30 139 109q6 5 -6.5 14.5t-21 20.5t-13.5 4z" />
    <glyph glyph-name="ucircumflex" unicode="&#xfb;" horiz-adv-x="403" 
d="M285 16q-35 -28 -87 -28q-68 0 -114 42q-62 56 -62 141q0 89 57 158q54 65 54 101q0 23 -18 55q23 19 35 19q5 0 7 -3q4 -10 4 -25q0 -60 -42 -135q-31 -56 -31 -143q0 -95 40 -151q33 -46 78 -46q37 0 75 32q11 5 11 -6q0 -7 -7 -11zM297 364v-302q0 -42 -6.5 -48
t-6.5 -12q0 -11 15 -2q32 9 62 0q13 -4 13 3q0 3 -7 7t-7 19v335q0 10 6.5 10.5t6.5 5.5t-7 4q-45 -3 -75 0q-7 1 -7 -4t6.5 -5.5t6.5 -10.5zM314 530q-8 -4 -17 2l-88 64l-88 -64q-9 -6 -17 -2q0 1 1 1l88 95q6 7 17 7q10 0 16 -7l88 -95q1 -1 0 -1z" />
    <glyph glyph-name="udieresis" unicode="&#xfc;" horiz-adv-x="403" 
d="M285 16q-35 -28 -87 -28q-68 0 -114 42q-62 56 -62 141q0 89 57 158q54 65 54 101q0 23 -18 55q23 19 35 19q5 0 7 -3q4 -10 4 -25q0 -60 -42 -135q-31 -56 -31 -143q0 -95 40 -151q33 -46 78 -46q37 0 75 32q11 5 11 -6q0 -7 -7 -11zM297 364v-302q0 -42 -6.5 -48
t-6.5 -12q0 -11 15 -2q32 9 62 0q13 -4 13 3q0 3 -7 7t-7 19v335q0 10 6.5 10.5t6.5 5.5t-7 4q-45 -3 -75 0q-7 1 -7 -4t6.5 -5.5t6.5 -10.5zM136 553q0 14 10 24.5t25 10.5q14 0 24.5 -10.5t10.5 -24.5q0 -15 -10.5 -25t-24.5 -10q-15 0 -25 10t-10 25zM251 553
q0 14 10 24.5t25 10.5q14 0 24.5 -10.5t10.5 -24.5q0 -15 -10.5 -25t-24.5 -10q-15 0 -25 10t-10 25z" />
    <glyph glyph-name="thorn" unicode="&#xfe;" horiz-adv-x="425" 
d="M18 -182q0 -14 -6.5 -15t-6.5 -5q0 -8 12 -7q8 2 24.5 12.5t27.5 10.5q4 0 9 -1q13 -4 13 5q0 4 -6.5 4.5t-6.5 11.5v172q0 15 8 11q39 -30 108 -23q74 7 127 68t53 135q0 66 -37 114.5t-105 67.5q-35 10 -66 10t-73 -10q-4 -3 -14 -6q-2 201 0 201q-41 -4 -60 5
q-19 10 -19 -1l9 -14t9 -34v-712zM78 80v243q0 49 74 49q62 0 97 -26q55 -43 55 -144q0 -75 -33 -130q-37 -61 -98 -62q-35 -1 -63 16q-32 19 -32 54z" />
    <glyph glyph-name="ydieresis" unicode="&#xff;" horiz-adv-x="538" 
d="M209 52l-188 299q-6 14 -14 18q-14 3 -14 11q0 7 8 5q36 -11 87 -5q10 1 13 -3q2 -4 -4 -6.5t0 -11.5l158 -260q5 -9 9 -9q3 0 9 9q62 93 86 132q45 75 73 139q7 19 22 17q24 0 39 1q13 0 13 -6q0 -5 -9 -9q-5 -3 -16 -11q-26 -31 -66 -88q-81 -122 -161 -244
q-100 -143 -196 -214q-116 -86 -235 -83q-18 0 -18 7q0 4 6.5 13.5t7.5 14.5q4 16 11 16q3 0 7 -1q34 -15 88 -5q142 27 266 201q26 36 26 48q0 11 -8 25zM136 464q0 14 10 24t25 10q14 0 24.5 -10t10.5 -24q0 -15 -10.5 -25t-24.5 -10q-15 0 -25 10t-10 25zM251 464
q0 14 10 24t25 10q14 0 24.5 -10t10.5 -24q0 -15 -10.5 -25t-24.5 -10q-15 0 -25 10t-10 25z" />
    </font>
</defs>
</svg>
